<svg width="30" height="30" viewBox="0 0 30 30" fill="none" xmlns="http://www.w3.org/2000/svg">
<g clip-path="url(#clip0_130_18)">
<path d="M9.06285 12.5005H0.938165C0.420673 12.5005 0.000682831 12.0805 0.000682831 11.563V3.43811C0.000682831 2.92062 0.420673 2.50063 0.938165 2.50063C1.45566 2.50063 1.87565 2.92062 1.87565 3.43811V10.6255H9.06285C9.58035 10.6255 10.0003 11.0455 10.0003 11.563C10.0003 12.0805 9.58035 12.5005 9.06285 12.5005Z" fill="white"/>
<path d="M22.8127 15.9377H15.0004C14.4829 15.9377 14.0629 15.5178 14.0629 15.0003V7.18799C14.0629 6.6705 14.4829 6.25051 15.0004 6.25051C15.5179 6.25051 15.9379 6.6705 15.9379 7.18799V14.0628H22.8127C23.3302 14.0628 23.7502 14.4828 23.7502 15.0003C23.7502 15.5178 23.3302 15.9377 22.8127 15.9377Z" fill="white"/>
<path d="M15.0005 30.0005C10.988 30.0005 7.22184 28.4381 4.39933 25.5994C4.03312 25.2318 4.03564 24.6381 4.40184 24.273C4.76805 23.9082 5.36175 23.9093 5.72796 24.2756C8.198 26.7593 11.4904 28.1255 15.0005 28.1255C22.2378 28.1255 28.1252 22.2381 28.1252 15.0008C28.1252 7.76343 22.2378 1.87602 15.0005 1.87602C8.8281 1.87602 3.29682 6.04593 1.84803 11.7935C1.72054 12.2959 1.20305 12.5996 0.709364 12.4721C0.206978 12.3458 -0.0967425 11.8358 0.0282246 11.3335C1.68553 4.76719 7.98172 0.00105286 15.0005 0.00105286C23.2714 0.00105286 30.0002 6.72982 30.0002 15.0008C30.0002 23.2719 23.2714 30.0005 15.0005 30.0005Z" fill="white"/>
</g>
<defs>
<clipPath id="clip0_130_18">
<rect width="30" height="30" fill="white"/>
</clipPath>
</defs>
</svg>
