<?xml version="1.0" encoding="UTF-8"?>
<!DOCTYPE svg PUBLIC "-//W3C//DTD SVG 1.1//EN" "http://www.w3.org/Graphics/SVG/1.1/DTD/svg11.dtd">
<!-- Creator: CorelDRAW 2021.5 -->
<svg xmlns="http://www.w3.org/2000/svg" xml:space="preserve" width="11.6416mm" height="11.6416mm" version="1.1" style="shape-rendering:geometricPrecision; text-rendering:geometricPrecision; image-rendering:optimizeQuality; fill-rule:evenodd; clip-rule:evenodd"
viewBox="0 0 6011.66 6011.66"
 xmlns:xlink="http://www.w3.org/1999/xlink"
 xmlns:xodm="http://www.corel.com/coreldraw/odm/2003">
 <defs>
  <style type="text/css">
   <![CDATA[
    .str1 {stroke:white;stroke-width:50.35;stroke-miterlimit:22.9256}
    .str0 {stroke:white;stroke-width:50.35;stroke-linecap:round;stroke-linejoin:round;stroke-miterlimit:22.9256}
    .fil1 {fill:none}
    .fil0 {fill:#2C3E50}
   ]]>
  </style>
 </defs>
 <g id="Layer_x0020_1">
  <metadata id="CorelCorpID_0Corel-Layer"/>
  <rect class="fil0" width="6011.66" height="6011.66" rx="879.11" ry="879.11"/>
  <g id="_1718962467040">
   <polygon class="fil1 str0" points="2753.42,1393.96 677.2,2620.7 2724.96,3833.2 4310.6,2898.88 4943.39,3276.89 5441.15,2977.32 "/>
   <polygon class="fil1 str0" points="4943.39,4061.44 4943.39,3276.89 5441.15,2977.32 5441.15,3769.01 "/>
   <path class="fil1 str0" d="M2724.96 4617.7c0,0 1585.64,-905.76 1585.64,-927.19 0,-28.5 0,-791.63 0,-791.63l-1585.64 934.31c0,0 -263.05,449.31 0,784.51z"/>
   <polygon class="fil1 str0" points="4943.39,3276.89 4943.39,4061.44 4310.6,3690.52 4310.6,2898.88 "/>
   <polygon class="fil1 str0" points="5441.15,2977.32 4943.39,3276.89 4943.39,4061.44 5441.15,3769.01 "/>
   <path class="fil1 str0" d="M677.2 2620.7c0,0 -234.65,392.25 0,784.56l2047.76 1212.49c0,0 -263.05,-278.18 0,-784.56l-2047.76 -1212.49z"/>
   <line class="fil1 str1" x1="634.49" y1="2749.08" x2="2668.11" y2= "3947.32" />
   <line class="fil1 str1" x1="606.09" y1="2856.08" x2="2639.65" y2= "4061.44" />
   <line class="fil1 str1" x1="570.51" y1="2963.07" x2="2604.07" y2= "4161.26" />
   <line class="fil1 str1" x1="577.64" y1="3091.45" x2="2611.2" y2= "4303.89" />
   <line class="fil1 str1" x1="613.17" y1="3241.2" x2="2632.53" y2= "4439.44" />
   <line class="fil1 str1" x1="4310.6" y1="3055.77" x2="4943.39" y2= "3426.64" />
   <line class="fil1 str1" x1="4310.6" y1="3177.01" x2="4943.39" y2= "3555.02" />
   <line class="fil1 str1" x1="4310.6" y1="3305.39" x2="4943.39" y2= "3683.39" />
   <line class="fil1 str1" x1="4310.6" y1="3433.77" x2="4943.39" y2= "3811.77" />
   <line class="fil1 str1" x1="4310.6" y1="3562.14" x2="4943.39" y2= "3933.07" />
   <path class="fil1 str0" d="M3905.29 2720.57c-49.78,35.63 -106.64,64.19 -156.42,99.82 -42.65,21.43 -78.23,42.81 -113.76,64.19 -99.56,57.06 -199.07,114.12 -298.63,171.18 -92.43,57.06 -192,121.25 -291.56,178.31 -92.43,49.94 -184.87,107 -270.18,156.93 -92.43,-49.94 -184.87,-99.87 -270.18,-156.93 -128.01,-78.44 -255.98,-149.75 -383.99,-228.25 -127.96,-71.31 -248.85,-149.75 -376.86,-221.07 85.36,-57.06 177.79,-107 270.23,-164.06 127.96,78.44 255.98,149.75 383.94,228.25 128.01,71.31 248.9,149.75 376.86,221.07 99.56,-57.06 199.07,-114.12 298.63,-171.13 99.56,-57.06 192,-114.12 291.56,-171.18 -56.91,-35.68 -113.76,-71.31 -170.67,-107 -113.76,71.31 -227.52,135.5 -341.29,199.69 -99.56,-57.06 -199.12,-114.12 -298.63,-171.18 -99.56,-64.19 -199.12,-121.25 -298.68,-178.26 99.56,-64.19 199.12,-121.25 305.76,-185.44 99.56,-57.06 199.12,-121.25 305.76,-178.31 85.31,49.94 170.67,106.95 263.1,156.88 85.31,49.94 177.74,107 263.05,156.93 21.38,14.25 49.78,28.5 71.11,42.76 149.34,85.62 298.68,171.18 440.85,256.8zm-838.99 -256.8c-64.03,35.68 -128.01,78.49 -192,114.12 -64.03,-35.63 -128.01,-71.31 -184.87,-114.12 63.98,-35.63 127.96,-71.31 192,-114.07 56.86,42.76 120.84,78.44 184.87,114.07z"/>
   <path class="fil1 str0" d="M2767.62 2014.46c-92.43,49.94 -184.87,107 -270.18,164.06 -92.43,-57.06 -184.87,-107 -277.3,-164.06 92.43,-57.06 184.87,-107 277.3,-164.01 92.43,57.01 184.87,106.95 270.18,164.01z"/>
   <path class="fil1 str0" d="M2397.88 2242.7c-92.43,57.06 -184.87,107 -277.3,164.06 -85.31,-57.06 -177.74,-107 -270.18,-164.06 92.43,-49.94 184.87,-107 277.3,-156.93 92.43,49.94 177.74,107 270.18,156.93z"/>
   <path class="fil1 str0" d="M2497.44 2171.39l0 -320.94c92.43,57.01 184.87,106.95 270.18,164.01 -92.43,49.94 -177.74,107 -270.18,156.93z"/>
   <path class="fil1 str0" d="M2127.7 2406.76l0 -320.99c92.43,49.94 177.74,107 270.18,156.93 -92.43,57.06 -177.74,107 -270.18,164.06z"/>
   <path class="fil1 str0" d="M2013.94 2941.64l0 -320.94c-92.43,57.06 -184.87,107 -270.23,164.06 85.36,49.88 177.79,106.95 270.23,156.88z"/>
   <path class="fil1 str0" d="M2013.94 2620.7l0 320.94 106.64 64.19c128.01,78.49 255.98,149.81 383.99,228.25 85.31,57.06 177.74,107 270.18,156.93l0 -320.99c-127.96,-71.31 -248.85,-149.75 -376.86,-221.07 -127.96,-78.49 -255.98,-149.81 -383.94,-228.25z"/>
   <path class="fil1 str0" d="M2774.74 3070.02l0 320.99c92.43,-49.94 177.74,-107 270.18,-156.93 99.56,-57.06 199.12,-121.25 291.56,-178.31l28.45 -14.25 0 -313.81c-99.56,57.06 -192,114.12 -291.56,171.18 -99.56,57.01 -199.07,114.07 -298.63,171.13z"/>
   <path class="fil1 str0" d="M2867.18 2820.39l0 -249.63c-63.98,-35.63 -120.89,-71.31 -177.74,-107 56.86,-35.63 113.76,-71.31 177.74,-99.82l0 -256.75c-106.64,57.06 -206.2,121.25 -305.76,178.31 -106.64,64.19 -206.2,121.25 -305.76,185.44 99.56,57.01 199.12,114.07 298.68,178.26 99.51,57.06 199.07,114.12 298.63,171.18l14.2 0z"/>
   <path class="fil1 str0" d="M2689.43 2463.77l170.62 107 7.13 0 0 249.63 -14.2 0c-56.91,-28.5 -106.69,-64.19 -163.54,-99.82l0 -256.8z"/>
   <path class="fil1 str0" d="M2867.18 2570.77l0 249.63c63.98,-42.76 135.09,-78.44 199.12,-121.25l0 -235.37c-64.03,35.68 -128.01,78.49 -192,114.12l-7.13 -7.13z"/>
  </g>
 </g>
</svg>
