<?xml version="1.0" encoding="UTF-8"?>
<!DOCTYPE svg PUBLIC "-//W3C//DTD SVG 1.1//EN" "http://www.w3.org/Graphics/SVG/1.1/DTD/svg11.dtd">
<!-- Creator: CorelDRAW 2021.5 -->
<svg xmlns="http://www.w3.org/2000/svg" xml:space="preserve" width="7.4081mm" height="7.4084mm" version="1.1" style="shape-rendering:geometricPrecision; text-rendering:geometricPrecision; image-rendering:optimizeQuality; fill-rule:evenodd; clip-rule:evenodd"
viewBox="0 0 23.61 23.61"
 xmlns:xlink="http://www.w3.org/1999/xlink"
 xmlns:xodm="http://www.corel.com/coreldraw/odm/2003">
 <defs>
  <style type="text/css">
   <![CDATA[
    .fil0 {fill:#FEFEFE}
   ]]>
  </style>
 </defs>
 <g id="Layer_x0020_1">
  <metadata id="CorelCorpID_0Corel-Layer"/>
  <path class="fil0" d="M18.94 23.61l-3.94 0c-0.41,0 -0.74,-0.33 -0.74,-0.74l0 -6.4c0,-0.14 -0.11,-0.25 -0.25,-0.25l-4.43 0c-0.14,0 -0.25,0.11 -0.25,0.25l0 6.4c0,0.41 -0.33,0.74 -0.74,0.74l-3.94 0c-0.95,0 -1.72,-0.77 -1.72,-1.72l0 -9.1 -1.72 0c-0.68,0 -1.23,-0.55 -1.23,-1.23 0,-0.33 0.13,-0.64 0.36,-0.88l10.93 -10.48c0.29,-0.27 0.74,-0.27 1.02,0l10.92 10.47c0.24,0.24 0.37,0.56 0.37,0.89 0,0.68 -0.55,1.23 -1.23,1.23l-1.72 0 0 9.1c0,0.95 -0.77,1.72 -1.72,1.72z"/>
 </g>
</svg>
