<svg width="129" height="162" viewBox="0 0 129 162" fill="none" xmlns="http://www.w3.org/2000/svg">
<g clip-path="url(#clip0_13_68)">
<path d="M61.2518 46.8202C48.5374 56.718 44.918 76.3286 45.5676 91.9616C46.1245 107.687 46.9597 109.26 46.9597 109.26C46.9597 109.26 35.0806 110.092 36.1014 120.267C37.0295 130.535 55.9619 143.393 67.2842 138.768C78.5137 134.143 61.2518 46.8202 61.2518 46.8202Z" fill="#275471"/>
<path d="M129 138.768H57.4467C57.4467 138.768 54.8482 120.36 52.8064 100.934C52.064 94.1817 51.4143 87.2439 50.9503 80.9537C49.2798 58.2906 60.6949 38.495 80.3697 33.5923C81.7618 33.2223 83.2467 32.9448 84.7316 32.7598C97.2604 31.1872 110.717 35.9974 121.297 47.5602C123.432 49.9653 125.381 52.5554 127.329 55.5155C127.886 56.4405 128.443 57.3655 129 58.2906V138.768Z" fill="#316F98"/>
<path d="M121.297 47.5602C121.019 47.5602 120.833 47.5602 120.647 47.4677C118.513 46.2652 116.657 45.7102 115.172 45.6177C106.541 39.8825 98.0029 36.7374 90.6712 35.1649L87.5158 32.5748C88.1654 32.4823 88.8151 32.4823 89.4647 32.4823C100.601 32.4823 112.017 37.3849 121.297 47.5602Z" fill="#6B9950"/>
<path d="M121.854 48.2077C121.668 48.0227 121.576 47.9302 121.483 47.8377C121.576 47.9302 121.668 48.0227 121.854 48.2077ZM121.483 47.8377C121.483 47.7452 121.39 47.7452 121.39 47.7452C121.39 47.7452 121.483 47.7452 121.483 47.8377ZM121.39 47.7452C121.39 47.7452 121.39 47.7452 121.39 47.6527C121.39 47.7452 121.39 47.7452 121.39 47.7452ZM121.39 47.6527C121.297 47.6527 121.297 47.6527 121.297 47.6527C121.297 47.6527 121.297 47.6527 121.39 47.6527ZM121.297 47.6527V47.5602V47.6527Z" fill="#1D3E60"/>
<path d="M70.254 113.052L67.9338 106.855C67.9338 106.855 61.2518 108.15 53.9201 110.925C53.5489 107.687 53.1777 104.357 52.8065 100.934C54.0129 102.969 55.5906 104.449 57.6324 105.004C61.7158 106.115 66.2633 106.485 70.6252 106.485C76.4719 106.485 82.0403 105.745 85.7525 105.004C89.4648 104.264 91.3209 103.617 89.7432 103.617C89.2791 103.617 88.4439 103.617 87.2374 103.802C84.7317 104.172 82.3187 104.264 80.0914 104.264C68.8619 104.264 61.4374 100.657 61.4374 100.657C61.4374 100.657 63.8504 100.749 67.5626 100.749C78.7921 100.749 102.086 99.7318 105.242 90.9441C108.861 80.9537 96.1468 65.6908 105.056 53.4804C103.107 60.5106 104.963 70.5934 107.283 77.9937C110.717 89.279 114.522 98.7143 114.522 98.7143C114.522 98.7143 101.715 105.559 90.764 113.052H70.254Z" fill="#276189"/>
<path d="M121.854 48.2078C121.39 47.9302 121.019 47.7452 120.647 47.4677C120.833 47.5602 121.019 47.5602 121.297 47.5602V47.6527C121.297 47.6527 121.297 47.6527 121.39 47.6527C121.39 47.7452 121.39 47.7452 121.39 47.7452C121.39 47.7452 121.483 47.7452 121.483 47.8377C121.576 47.9302 121.668 48.0227 121.854 48.2078Z" fill="#437766"/>
<path d="M68.3978 135.16C68.3978 135.16 47.5165 127.02 27.7489 125.54C7.88846 124.153 2.50573 139.508 6.21796 149.313C9.09494 156.714 12.5288 160.599 20.6029 161.986H71.646C74.7086 158.564 87.6086 142.561 68.3978 135.16Z" fill="#275471"/>
<path d="M22.6446 125.633C22.7374 125.633 22.7374 125.54 22.7374 125.54C22.7374 125.54 22.7374 125.633 22.6446 125.633ZM22.7374 125.54C22.7374 125.54 22.7374 125.54 22.8302 125.54C22.7374 125.54 22.7374 125.54 22.7374 125.54ZM27.7489 125.54C26.8209 125.54 25.9856 125.448 25.2432 125.448C24.5935 125.448 23.9439 125.54 23.2943 125.54C23.9439 125.54 24.5935 125.448 25.2432 125.448C25.9856 125.448 26.8209 125.54 27.7489 125.54ZM22.8302 125.54C22.923 125.54 22.923 125.54 22.923 125.54C22.923 125.54 22.923 125.54 22.8302 125.54ZM22.923 125.54H23.0158H22.923ZM23.0158 125.54H23.1087H23.0158ZM23.1087 125.54C23.2015 125.54 23.2943 125.54 23.2943 125.54C23.2943 125.54 23.2015 125.54 23.1087 125.54Z" fill="#D99B33"/>
<path d="M53.4561 156.066H46.1244C47.2381 154.586 48.6302 152.921 50.0223 151.163C51.3216 152.921 52.4352 154.586 53.4561 156.066ZM14.1065 153.291C10.3942 151.163 8.16689 147.741 6.21797 142.746C5.84675 141.821 5.56833 140.896 5.38272 139.878C6.682 133.125 11.8791 126.65 22.2734 125.633C22.3662 125.633 22.3662 125.633 22.459 125.633C22.5518 125.633 22.5518 125.633 22.5518 125.633H22.6446C22.7374 125.633 22.7374 125.54 22.7374 125.54C22.7374 125.54 22.7374 125.54 22.8302 125.54C22.923 125.54 22.923 125.54 22.923 125.54H23.0158H23.1086C23.2014 125.54 23.2942 125.54 23.2942 125.54C23.9439 125.54 24.5935 125.448 25.2432 125.448C25.9856 125.448 26.8208 125.54 27.7489 125.54C30.2547 125.725 32.7604 126.003 35.2662 126.373C35.1734 126.835 35.1734 127.205 35.1734 127.668C31.8324 129.518 32.482 133.68 32.482 133.68H35.1734H32.482C32.482 133.68 23.9439 140.248 14.1065 153.291Z" fill="#274B66"/>
<path d="M57.2612 161.986C56.1475 160.229 52.8993 155.048 48.723 149.406C43.2475 142.098 75.8223 128.685 94.6619 123.32C105.799 120.175 118.884 117.492 129 118.232V146.631C129 155.048 122.04 161.986 113.594 161.986H57.2612Z" fill="#316F98"/>
<path d="M94.6619 126.928C105.799 123.783 118.884 121.1 129 121.84V118.232C118.884 117.492 105.799 120.175 94.6619 123.32C75.9151 128.685 43.5259 142.006 48.6302 149.313C52.7137 141.821 78.6065 131.46 94.6619 126.928Z" fill="#F6B03C"/>
<path d="M93.3626 155.789H57.6324C57.6324 155.789 55.6834 152.551 52.6208 148.018C54.477 145.891 56.5187 143.578 58.5604 141.358C60.9734 139.971 63.6647 138.583 66.6345 137.288C67.6554 137.195 68.6762 137.01 69.3259 136.918C67.841 137.195 64.7784 137.935 65.7065 139.878C65.8921 140.341 67.0057 140.618 68.7691 140.618C73.7806 140.618 83.618 138.675 90.2072 136.363C90.9496 137.01 91.6921 137.75 92.6201 138.305C90.3928 144.226 90.764 150.423 93.3626 155.789Z" fill="#265880"/>
<path d="M58.5604 141.358C59.8597 139.878 61.2518 138.398 62.6438 137.01C63.2935 137.288 64.1287 137.38 64.964 137.38C65.5208 137.38 66.0777 137.288 66.6345 137.288C63.6647 138.583 60.9733 139.971 58.5604 141.358Z" fill="#C19130"/>
<path d="M97.5389 161.986C95.7756 160.136 94.3835 158.009 93.3626 155.789H120.091C122.504 155.604 124.731 155.049 126.865 154.401C124.174 158.934 119.255 161.986 113.594 161.986H97.5389Z" fill="#276189"/>
<path d="M57.2612 161.986C56.3331 160.414 53.6418 156.066 50.0223 151.163C50.8576 150.146 51.6928 149.128 52.6209 148.018C55.6835 152.551 57.6324 155.789 57.6324 155.789H93.3626C94.3835 158.009 95.7756 160.136 97.5389 161.986H57.2612Z" fill="#1E567D"/>
<path d="M74.3374 68.0033C74.3374 68.0033 73.2238 77.8086 77.0288 99.7318C80.8338 121.562 80.4626 125.91 80.4626 125.91" stroke="#222C46" stroke-width="0.431676" stroke-linecap="round" stroke-linejoin="round"/>
<path d="M129 126.373C118.791 131.368 106.448 134.883 99.1166 136.825C95.1259 137.75 92.6202 138.305 92.6202 138.305C87.9799 135.16 85.9381 130.258 85.1029 126.003C84.1748 121.377 84.5461 117.585 84.5461 117.585C86.3094 116.197 88.1655 114.902 90.1144 113.515C101.158 105.837 114.522 98.7143 114.522 98.7143C114.522 98.7143 110.717 89.279 107.283 77.9937C104.685 69.6684 102.643 57.828 106.077 50.9828C107.283 48.4853 109.232 46.7277 112.109 45.8952C112.109 45.8952 118.235 43.3051 126.773 52.5554C127.422 53.2954 128.165 54.2204 129 55.238V126.373Z" fill="#316F98"/>
<path d="M129 55.8855C125.009 51.9079 120.74 48.7628 116.842 48.1152C111.738 47.2827 108.304 49.0403 106.077 50.9828C107.283 48.4853 109.232 46.7277 112.109 45.8952C112.109 45.8952 118.235 43.3051 126.773 52.5554C127.422 53.2954 128.165 54.2204 129 55.238V55.8855Z" fill="#F6B03C"/>
<path d="M92.6201 138.305C91.6921 137.75 90.9496 137.01 90.2072 136.363C91.1353 135.993 91.9705 135.715 92.713 135.345C92.713 131.275 91.6921 127.76 90.3 125.078C107.098 121.747 122.411 116.012 129 111.387V126.373C118.791 131.368 106.448 134.883 99.1166 136.825C95.1259 137.75 92.6201 138.305 92.6201 138.305ZM129 102.229C126.773 100.194 124.36 99.0843 124.174 98.9918C124.36 98.9918 126.309 99.7318 129 100.287V102.229Z" fill="#276189"/>
<path d="M99.1165 136.825C95.1259 137.75 92.6201 138.305 92.6201 138.305C82.9683 131.83 84.546 117.585 84.546 117.585C86.3093 116.197 88.1654 114.902 90.1144 113.515C93.9194 116.105 101.901 123.228 99.1165 136.825Z" fill="#222C46"/>
<path d="M92.7129 135.345C92.8057 136.27 92.7129 137.288 92.6201 138.305C91.6921 137.75 90.9496 137.103 90.2072 136.363C84.8244 130.905 84.3604 122.58 84.4532 119.157C84.546 118.14 84.546 117.585 84.546 117.585C84.546 117.585 85.2885 118.14 86.4021 119.25C88.7223 121.84 92.7129 127.39 92.7129 135.345Z" fill="#222C46"/>
<path d="M92.713 135.345C91.9705 135.715 91.1353 135.993 90.2072 136.363C81.3907 139.508 66.5418 141.821 65.7065 139.878C64.7785 137.935 67.841 137.195 69.3259 136.918C67.4698 137.288 61.9015 138.028 61.8087 135.993C61.7159 133.773 66.449 132.94 67.5626 132.755C66.449 132.94 61.0662 133.403 60.7878 131.738C60.5094 129.98 67.9339 128.13 68.4907 128.038C67.841 128.13 58.3749 129.148 61.2518 125.91C64.1288 122.58 74.7087 122.118 74.7087 122.118C74.7087 122.118 68.1195 118.88 71.1821 118.325C73.9662 117.77 82.5044 118.88 84.4533 119.157C84.7317 119.157 84.9173 119.157 84.9173 119.157C85.3813 119.157 85.8454 119.25 86.4022 119.25C88.7223 121.84 92.713 127.39 92.713 135.345Z" fill="#EB624A"/>
<path d="M49.1871 105.467C49.1871 105.467 52.7137 111.11 51.8784 115.457C51.0432 119.805 40.5561 121.377 36.0087 116.937C31.4612 112.405 44.7324 103.802 44.7324 103.802L49.1871 105.467Z" fill="#275471"/>
<path d="M45.1036 103.247C45.1036 103.247 49.0015 100.472 52.1569 102.137C55.2194 103.802 53.3633 108.705 48.259 108.335C43.1547 107.965 45.1036 103.247 45.1036 103.247Z" fill="#EB624A"/>
<path d="M51.0431 115.642L50.8575 115.735C50.4863 115.827 50.0223 115.642 49.9295 115.272L38.7 78.9187C38.6072 78.5487 38.7928 78.1787 39.164 77.9937H39.3496C39.7208 77.8087 40.1849 78.0862 40.2777 78.4562L51.5072 114.717C51.6 115.18 51.4144 115.55 51.0431 115.642Z" fill="#F6EEEA"/>
<path d="M48.9086 109.445C48.5374 110.647 46.8669 110.462 46.8669 110.462C48.9086 113.885 45.382 115.735 45.382 115.735C45.6604 119.435 41.8554 118.232 41.8554 118.232C41.8554 118.232 42.7835 119.99 41.0202 121.1C39.2568 122.118 34.2453 120.36 32.5748 117.215C32.3892 116.845 32.2036 116.475 32.1108 116.105C31.554 113.607 33.5029 112.312 33.5029 112.312C32.5748 108.705 35.4518 107.872 35.4518 107.872C35.2662 103.987 38.7928 104.634 38.7928 104.634C36.8439 103.062 36.3799 99.6393 40.5561 99.7318C43.0619 99.7318 45.7532 102.322 47.4238 104.912C48.5374 106.762 49.1871 108.52 48.9086 109.445Z" fill="#F08F5F"/>
<path d="M48.9087 109.445C48.5374 110.647 46.8669 110.462 46.8669 110.462C48.9087 113.885 45.382 115.735 45.382 115.735C45.6605 119.435 41.8554 118.232 41.8554 118.232C41.8554 118.232 42.7835 119.99 41.0202 121.1C39.2569 122.118 34.2453 120.36 32.5748 117.215C32.3892 116.845 32.2036 116.475 32.1108 116.105C34.7094 118.232 38.4216 117.307 38.4216 117.307C38.4216 117.307 36.0087 114.81 35.0806 113.052C35.1734 113.145 37.772 114.625 40.1849 114.347C42.5051 113.977 39.8137 110.185 39.6281 110C39.8137 110.092 43.0619 112.59 44.7324 111.202C46.4029 109.722 40.8346 105.004 40.8346 105.004C40.8346 105.004 45.1036 107.595 47.0525 107.225C47.8878 107.04 47.795 106.022 47.4238 104.912C48.5374 106.762 49.1871 108.52 48.9087 109.445Z" fill="#EB624A"/>
<path d="M69.0475 127.668C66.5417 130.258 66.4489 133.68 66.4489 133.68H32.482C32.482 133.68 31.8324 129.518 35.1734 127.668H69.0475Z" fill="#222C46"/>
<path d="M69.0475 127.668H35.1734L1.57771 113.052H35.5446H35.6374C63.2935 115.827 68.8619 127.298 69.0475 127.575V127.668Z" fill="#F6EEEA"/>
<path d="M1.5777 113.052L0 119.065C0 119.065 17.8187 124.338 32.482 133.68C32.482 133.68 32.6676 130.258 35.1734 127.668C35.1734 127.668 29.7906 115.827 1.5777 113.052Z" fill="#CFD1D0"/>
<path d="M67.9338 106.855H103.478L106.541 113.052H70.254L67.9338 106.855Z" fill="#F6EEEA"/>
<path d="M106.541 113.052C103.85 113.607 101.065 114.532 98.1885 115.55C86.6806 119.342 76.6576 125.448 71.182 129.518C67.7482 132.015 63.9432 133.31 59.6741 133.033C52.8993 132.663 45.4748 132.94 37.5863 133.68L44.5468 118.232L70.254 113.052H106.541Z" fill="#F6B03C"/>
<path d="M98.1885 115.55C82.1331 121.47 66.3561 133.68 66.3561 133.68C67.0986 135.715 42.5978 134.883 40.9273 133.68C46.7741 127.113 55.9619 120.915 69.6043 115.55H98.1885Z" fill="#222C46"/>
<path d="M35.1734 127.668C35.1734 127.668 37.4935 128.87 37.5863 133.68C37.5863 133.68 42.8763 123.413 70.254 113.052L67.9338 106.855C67.9338 106.855 35.7302 112.96 35.1734 127.668Z" fill="#CFD1D0"/>
<path d="M32.482 133.68C32.482 133.68 20.1388 143.208 8.07408 161.986H41.2057C42.8762 158.934 50.8575 145.058 66.4489 133.68H32.482Z" fill="#F6B03C"/>
<path d="M35.1734 133.68C35.1734 133.68 22.7374 143.208 10.7655 161.986H41.577C43.9899 158.749 55.2194 143.763 66.1705 133.68H35.1734Z" fill="#222C46"/>
<path d="M31.6468 136.64C33.7813 134.698 35.0806 133.68 35.1734 133.68H66.1705H35.1734C35.1734 133.68 33.8741 134.605 31.6468 136.64Z" fill="#DC8E28"/>
<path d="M27.3777 161.986C28.4914 155.326 30.9971 148.573 32.7604 144.411C33.7813 141.821 33.4101 138.861 31.6468 136.64C33.8741 134.605 35.1734 133.68 35.1734 133.68H66.1705C55.2194 143.763 43.9899 158.749 41.577 161.986H27.3777Z" fill="#252B3B"/>
<path d="M70.4396 137.658C74.7087 142.098 82.2259 150.238 90.6712 161.986H56.9828C54.5698 158.749 43.3403 143.763 32.3892 133.68H60.9734C64.5928 133.68 67.9338 135.068 70.4396 137.658Z" fill="#F6B03C"/>
<path d="M66.3561 133.68C66.3561 133.68 78.6993 143.208 90.7641 161.986H59.8597C57.4468 158.749 46.3101 143.763 35.359 133.68C46.1245 133.033 56.5187 132.94 66.3561 133.68Z" fill="#222C46"/>
<path d="M85.1029 30.6322L90.7641 35.1649C90.7641 35.1649 90.2072 65.5058 74.4303 65.5058C74.4303 65.5058 64.1288 64.1182 62.3655 51.8154C60.695 39.605 85.1029 30.6322 85.1029 30.6322Z" fill="#F08F5F"/>
<path d="M61.4374 53.2954C61.4374 53.2954 64.6856 66.0608 74.3374 66.0608C86.495 66.0608 92.6202 50.0578 92.6202 35.1648L87.7015 31.5572C87.7015 31.5572 87.3302 40.9 83.7108 50.7053C80.0914 60.5106 74.9871 58.013 74.7086 65.1358C74.7086 65.1358 74.523 61.9907 70.3468 59.8631C65.7993 57.5505 64.8712 51.1678 64.8712 51.1678L61.4374 53.2954Z" fill="#222C46"/>
<path d="M88.9079 24.4347C88.2583 28.8749 85.9382 32.02 84.7317 33.4075C84.2677 33.9625 83.9892 34.3325 83.9892 34.3325C83.9892 34.3325 82.1331 52.6481 68.3979 55.2382C66.0777 55.7007 64.036 55.7932 62.2727 55.7007C53.549 55.0532 50.672 48.0229 46.6813 35.0725C44.7324 28.5974 44.2684 22.2147 45.4749 16.757C47.2382 8.70925 52.4353 2.51156 61.3446 0.568998C62.0871 0.383992 62.9223 0.291489 63.7576 0.198987C65.2425 0.013981 66.7274 0.013981 68.1195 0.106484H68.4907C77.4 0.846506 86.031 6.39668 88.6295 17.312C88.7223 17.682 88.8151 18.052 88.9079 18.422C89.2792 20.5496 89.2792 22.5847 88.9079 24.4347Z" fill="#F08F5F"/>
<path d="M88.9079 24.435C87.9798 30.5402 83.9892 34.3328 83.9892 34.3328C83.9892 34.3328 82.1331 52.6484 68.3978 55.2384C66.0777 55.7009 64.036 55.7934 62.2727 55.7009C68.8619 54.3134 72.8525 49.7808 73.2237 41.178C73.6878 29.4301 69.8827 8.062 69.8827 8.062C69.0475 4.26938 68.5834 1.77181 68.4906 0.106758C77.4 0.846781 86.0309 6.39695 88.6295 17.3123C88.7223 17.6823 88.8151 18.0523 88.9079 18.4223C89.2791 20.5499 89.2791 22.5849 88.9079 24.435Z" fill="#EB624A"/>
<path d="M88.9079 24.435C88.3511 24.7125 87.7942 24.8975 87.2374 25.0825C83.8036 26.1 80.0913 33.5003 80.0913 33.5003L79.3489 27.7651C79.0705 25.73 77.9568 23.7875 76.1007 22.6774C73.8734 21.2899 71.0892 19.3473 70.5323 17.9598C69.5115 15.5547 68.4906 2.78934 68.4906 2.78934L68.1194 0.106758C77.1216 0.661775 86.0309 6.30445 88.6295 17.3123C88.7223 17.6823 88.8151 18.0523 88.9079 18.4223C89.2791 20.5499 89.2791 22.5849 88.9079 24.435Z" fill="#222C46"/>
<path d="M88.9079 18.4219C67.377 8.33907 51.6 13.7042 45.4749 16.7568C47.2382 8.70908 52.4353 2.51139 61.3446 0.568829C72.2029 -1.83624 85.3813 3.43642 88.6295 17.3118C88.7223 17.6819 88.8151 18.0519 88.9079 18.4219Z" fill="#FDE7DC"/>
<path d="M84.7316 33.4074C85.9381 32.0198 88.2583 28.8747 88.9079 24.4346C88.2583 28.8747 85.9381 32.0198 84.7316 33.4074ZM63.7575 0.198845C64.6856 0.106343 65.6136 0.0138397 66.5417 0.0138397C66.9129 0.0138397 67.2841 0.0138397 67.5626 0.0138397C67.2841 0.0138397 66.9129 0.0138397 66.5417 0.0138397C65.6136 0.0138397 64.6856 0.106343 63.7575 0.198845Z" fill="#FAF275"/>
<path d="M84.7316 33.4073L85.1028 26.3771C85.7525 25.7296 86.4949 25.2671 87.2374 25.082C87.7942 24.897 88.351 24.712 88.9079 24.4345C88.2582 28.8747 85.9381 32.0198 84.7316 33.4073ZM89.1863 21.5669C89.1863 20.5494 89.0935 19.5319 88.9079 18.4218C88.8151 18.0518 88.7223 17.6818 88.6295 17.3118C87.423 11.9466 84.6388 7.87652 81.1122 5.00894C81.1122 5.00894 81.1122 5.00894 81.0194 5.00894C81.0194 4.91643 81.0194 4.91643 81.0194 4.91643H80.9266C78.6992 3.15888 76.1935 1.86384 73.5949 1.03132H73.5021C73.4093 1.03132 73.3165 0.938812 73.2237 0.938812C80.2769 2.97387 86.4949 8.33904 88.6295 17.3118C88.7223 17.6818 88.8151 18.0518 88.9079 18.4218C89.0935 19.5319 89.1863 20.5494 89.1863 21.5669Z" fill="#FAF05F"/>
<path d="M85.1028 26.3771L85.1956 23.5095C84.9172 20.7344 84.3604 18.3293 83.7107 16.2018C85.3813 16.8493 87.1446 17.5893 88.9079 18.4218C88.8151 18.0518 88.7223 17.6818 88.6295 17.3118C88.7223 17.6818 88.8151 18.0518 88.9079 18.4218C89.0935 19.5319 89.1863 20.5494 89.1863 21.5669C89.1863 22.5845 89.0935 23.5095 88.9079 24.4345C88.351 24.712 87.7942 24.897 87.2374 25.082C86.4949 25.267 85.7525 25.7296 85.1028 26.3771ZM81.0194 4.91643H80.9266H81.0194ZM80.9266 4.91643C78.6992 3.15888 76.1935 1.86384 73.5949 1.03131C76.1935 1.86384 78.6992 3.15888 80.9266 4.91643Z" fill="#E95148"/>
<path d="M88.9079 18.4219C87.1446 17.5894 85.3813 16.8494 83.7108 16.2018C79.9057 4.45398 70.9964 0.938868 63.7575 0.198845C64.6856 0.106343 65.6136 0.0138397 66.5417 0.0138397C66.9129 0.0138397 67.2841 0.0138397 67.5626 0.0138397C67.7482 0.0138397 67.9338 0.0138397 68.1194 0.106343H68.4906C70.0683 0.198845 71.646 0.476354 73.2237 0.938868C73.3165 0.938868 73.4093 1.03137 73.5021 1.03137H73.5949C76.1935 1.8639 78.6993 3.15894 80.9266 4.91649H81.0194C81.0194 4.91649 81.0194 4.91649 81.0194 5.00899C81.1122 5.00899 81.1122 5.00899 81.1122 5.00899C84.6388 7.87658 87.423 11.9467 88.6295 17.3119C88.7223 17.6819 88.8151 18.0519 88.9079 18.4219Z" fill="#D6C0C0"/>
<path d="M90.2072 31.2797C88.8151 34.0548 86.4021 36.4599 83.3396 36.8299L81.5762 31.9273C81.5762 31.9273 81.4834 30.6322 81.8547 29.1522C82.3187 26.5621 83.8964 23.1395 88.0726 22.7695C92.1561 22.3995 92.3417 27.1171 90.2072 31.2797Z" fill="#EB624A"/>
<path d="M90.2072 31.2797C91.228 28.4121 92.1561 23.1395 87.887 23.6945C84.546 24.157 82.6899 27.1171 81.8547 29.1522C82.3187 26.5621 83.8964 23.1395 88.0726 22.7695C92.1561 22.3995 92.3417 27.1171 90.2072 31.2797Z" fill="#F6B03C"/>
<path d="M56.4259 31.4647C56.4259 31.4647 55.7763 34.7023 54.8482 37.4774C54.013 40.345 59.5813 39.79 59.5813 39.79" stroke="#D5402B" stroke-width="0.431676" stroke-linecap="round" stroke-linejoin="round"/>
</g>
<defs>
<clipPath id="clip0_13_68">
<rect width="129" height="162" fill="white"/>
</clipPath>
</defs>
</svg>
