<svg width="167" height="209" viewBox="0 0 167 209" fill="none" xmlns="http://www.w3.org/2000/svg">
<g clip-path="url(#clip0_13_68)">
<path d="M79.295 60.4038C62.8353 73.1732 58.1496 98.4733 58.9907 118.642C59.7115 138.93 60.7928 140.958 60.7928 140.958C60.7928 140.958 45.4144 142.032 46.736 155.16C47.9374 168.407 72.4468 184.995 87.1043 179.028C101.642 173.061 79.295 60.4038 79.295 60.4038Z" fill="#275471"/>
<path d="M167 179.028H74.369C74.369 179.028 71.005 155.279 68.3618 130.218C67.4007 121.506 66.5597 112.555 65.9589 104.44C63.7963 75.202 78.574 49.6632 104.045 43.3382C105.847 42.8609 107.769 42.5028 109.691 42.2642C125.911 40.2354 143.332 46.4411 157.028 61.3586C159.791 64.4614 162.314 67.8029 164.837 71.6218C165.558 72.8152 166.279 74.0086 167 75.202V179.028Z" fill="#316F98"/>
<path d="M157.028 61.3586C156.668 61.3586 156.427 61.3586 156.187 61.2392C153.424 59.6878 151.021 58.9718 149.099 58.8524C137.925 51.4533 126.872 47.3958 117.381 45.367L113.296 42.0255C114.137 41.9061 114.978 41.9061 115.819 41.9061C130.236 41.9061 145.014 48.2312 157.028 61.3586Z" fill="#6B9950"/>
<path d="M157.749 62.1939C157.509 61.9553 157.388 61.8359 157.268 61.7166C157.388 61.8359 157.509 61.9553 157.749 62.1939ZM157.268 61.7166C157.268 61.5972 157.148 61.5972 157.148 61.5972C157.148 61.5972 157.268 61.5972 157.268 61.7166ZM157.148 61.5972C157.148 61.5972 157.148 61.5972 157.148 61.4779C157.148 61.5972 157.148 61.5972 157.148 61.5972ZM157.148 61.4779C157.028 61.4779 157.028 61.4779 157.028 61.4779C157.028 61.4779 157.028 61.4779 157.148 61.4779ZM157.028 61.4779V61.3586V61.4779Z" fill="#1D3E60"/>
<path d="M90.9489 145.851L87.9453 137.856C87.9453 137.856 79.295 139.526 69.8036 143.107C69.323 138.93 68.8424 134.633 68.3619 130.218C69.9237 132.843 71.9662 134.753 74.6093 135.469C79.8957 136.901 85.7827 137.378 91.4295 137.378C98.9986 137.378 106.207 136.423 111.013 135.469C115.819 134.514 118.222 133.679 116.179 133.679C115.578 133.679 114.497 133.679 112.935 133.917C109.691 134.395 106.568 134.514 103.684 134.514C89.1468 134.514 79.5352 129.86 79.5352 129.86C79.5352 129.86 82.659 129.979 87.4647 129.979C102.002 129.979 132.158 128.666 136.243 117.329C140.929 104.44 124.469 84.7492 136.003 68.9963C133.48 78.0662 135.883 91.0742 138.886 100.621C143.332 115.181 148.258 127.354 148.258 127.354C148.258 127.354 131.678 136.185 117.501 145.851H90.9489Z" fill="#276189"/>
<path d="M157.749 62.194C157.148 61.8359 156.668 61.5972 156.187 61.2392C156.427 61.3586 156.668 61.3586 157.028 61.3586V61.4779C157.028 61.4779 157.028 61.4779 157.148 61.4779C157.148 61.5972 157.148 61.5972 157.148 61.5972C157.148 61.5972 157.268 61.5972 157.268 61.7166C157.388 61.8359 157.509 61.9553 157.749 62.194Z" fill="#437766"/>
<path d="M88.546 174.374C88.546 174.374 61.5136 163.872 35.923 161.962C10.2122 160.172 3.24386 179.983 8.04961 192.633C11.7741 202.18 16.2194 207.192 26.6719 208.982H92.7511C96.7158 204.567 113.416 183.921 88.546 174.374Z" fill="#275471"/>
<path d="M29.3151 162.082C29.4353 162.082 29.4353 161.962 29.4353 161.962C29.4353 161.962 29.4353 162.082 29.3151 162.082ZM29.4353 161.962C29.4353 161.962 29.4353 161.962 29.5554 161.962C29.4353 161.962 29.4353 161.962 29.4353 161.962ZM35.923 161.962C34.7216 161.962 33.6403 161.843 32.6792 161.843C31.8381 161.843 30.9971 161.962 30.1561 161.962C30.9971 161.962 31.8381 161.843 32.6792 161.843C33.6403 161.843 34.7216 161.962 35.923 161.962ZM29.5554 161.962C29.6756 161.962 29.6756 161.962 29.6756 161.962C29.6756 161.962 29.6756 161.962 29.5554 161.962ZM29.6756 161.962H29.7957H29.6756ZM29.7957 161.962H29.9158H29.7957ZM29.9158 161.962C30.036 161.962 30.1561 161.962 30.1561 161.962C30.1561 161.962 30.036 161.962 29.9158 161.962Z" fill="#D99B33"/>
<path d="M69.2029 201.344H59.7115C61.1532 199.435 62.9554 197.287 64.7575 195.019C66.4396 197.287 67.8813 199.435 69.2029 201.344ZM18.2619 197.764C13.4561 195.019 10.5726 190.604 8.04963 184.159C7.56905 182.966 7.20862 181.773 6.96833 180.46C8.65034 171.748 15.3784 163.394 28.8345 162.082C28.9547 162.082 28.9547 162.082 29.0748 162.082C29.195 162.082 29.195 162.082 29.195 162.082H29.3151C29.4352 162.082 29.4352 161.962 29.4352 161.962C29.4352 161.962 29.4352 161.962 29.5554 161.962C29.6755 161.962 29.6755 161.962 29.6755 161.962H29.7957H29.9158C30.036 161.962 30.1561 161.962 30.1561 161.962C30.9971 161.962 31.8381 161.843 32.6791 161.843C33.6403 161.843 34.7216 161.962 35.923 161.962C39.1669 162.201 42.4108 162.559 45.6547 163.036C45.5345 163.633 45.5345 164.11 45.5345 164.707C41.2093 167.094 42.0503 172.464 42.0503 172.464H45.5345H42.0503C42.0503 172.464 30.9971 180.937 18.2619 197.764Z" fill="#274B66"/>
<path d="M74.1288 208.982C72.6871 206.715 68.482 200.032 63.0756 192.752C55.9871 183.324 98.1576 166.02 122.547 159.098C136.964 155.041 153.904 151.58 167 152.534V189.172C167 200.032 157.989 208.982 147.056 208.982H74.1288Z" fill="#316F98"/>
<path d="M122.547 163.752C136.964 159.695 153.904 156.234 167 157.189V152.534C153.904 151.58 136.964 155.041 122.547 159.098C98.2777 166.02 56.3475 183.205 62.9554 192.633C68.2417 182.966 101.762 169.6 122.547 163.752Z" fill="#F6B03C"/>
<path d="M120.865 200.986H74.6094C74.6094 200.986 72.0863 196.81 68.1216 190.962C70.5245 188.217 73.1676 185.234 75.8108 182.369C78.9345 180.579 82.4187 178.789 86.2633 177.118C87.5849 176.999 88.9065 176.76 89.7475 176.641C87.8252 176.999 83.8604 177.954 85.0619 180.46C85.3022 181.057 86.7439 181.415 89.0266 181.415C95.5144 181.415 108.25 178.909 116.78 175.925C117.741 176.76 118.702 177.715 119.904 178.431C117.02 186.069 117.501 194.065 120.865 200.986Z" fill="#265880"/>
<path d="M75.8108 182.369C77.4928 180.46 79.2949 178.551 81.0971 176.76C81.9381 177.118 83.0194 177.238 84.1007 177.238C84.8216 177.238 85.5424 177.118 86.2633 177.118C82.4187 178.789 78.9345 180.579 75.8108 182.369Z" fill="#C19130"/>
<path d="M126.271 208.982C123.989 206.595 122.186 203.851 120.865 200.986H155.466C158.59 200.748 161.473 200.032 164.237 199.196C160.753 205.044 154.385 208.982 147.056 208.982H126.271Z" fill="#276189"/>
<path d="M74.1288 208.982C72.9274 206.953 69.4432 201.344 64.7576 195.019C65.8389 193.707 66.9202 192.394 68.1216 190.962C72.0864 196.81 74.6094 200.986 74.6094 200.986H120.865C122.186 203.851 123.989 206.595 126.271 208.982H74.1288Z" fill="#1E567D"/>
<path d="M96.2353 87.7327C96.2353 87.7327 94.7936 100.383 99.7195 128.666C104.645 156.831 104.165 162.44 104.165 162.44" stroke="#222C46" stroke-width="0.431676" stroke-linecap="round" stroke-linejoin="round"/>
<path d="M167 163.036C153.784 169.481 137.805 174.016 128.314 176.522C123.148 177.715 119.904 178.431 119.904 178.431C113.896 174.374 111.253 168.049 110.172 162.559C108.971 156.592 109.451 151.699 109.451 151.699C111.734 149.909 114.137 148.238 116.66 146.448C130.957 136.543 148.258 127.354 148.258 127.354C148.258 127.354 143.332 115.181 138.886 100.621C135.522 89.8808 132.879 74.6053 137.324 65.7741C138.886 62.552 141.409 60.2845 145.134 59.2104C145.134 59.2104 153.063 55.8689 164.117 67.8029C164.958 68.7576 165.919 69.951 167 71.2638V163.036Z" fill="#316F98"/>
<path d="M167 72.0992C161.834 66.9675 156.307 62.91 151.261 62.0746C144.653 61.0005 140.208 63.268 137.324 65.7741C138.886 62.552 141.409 60.2845 145.134 59.2104C145.134 59.2104 153.063 55.8689 164.117 67.8029C164.958 68.7576 165.919 69.951 167 71.2638V72.0992Z" fill="#F6B03C"/>
<path d="M119.904 178.431C118.702 177.715 117.741 176.76 116.78 175.925C117.981 175.448 119.063 175.09 120.024 174.612C120.024 169.361 118.702 164.826 116.9 161.366C138.646 157.069 158.47 149.67 167 143.703V163.036C153.784 169.481 137.805 174.016 128.314 176.522C123.147 177.715 119.904 178.431 119.904 178.431ZM167 131.889C164.117 129.263 160.993 127.831 160.753 127.712C160.993 127.712 163.516 128.666 167 129.382V131.889Z" fill="#276189"/>
<path d="M128.314 176.522C123.147 177.715 119.904 178.431 119.904 178.431C107.409 170.077 109.451 151.699 109.451 151.699C111.734 149.909 114.137 148.238 116.66 146.448C121.586 149.79 131.918 158.979 128.314 176.522Z" fill="#222C46"/>
<path d="M120.024 174.612C120.144 175.806 120.024 177.118 119.904 178.431C118.702 177.715 117.741 176.88 116.78 175.925C109.811 168.884 109.211 158.143 109.331 153.728C109.451 152.415 109.451 151.699 109.451 151.699C109.451 151.699 110.412 152.415 111.854 153.847C114.858 157.189 120.024 164.349 120.024 174.612Z" fill="#222C46"/>
<path d="M120.024 174.612C119.063 175.09 117.981 175.448 116.78 175.925C105.366 179.983 86.1432 182.966 85.0619 180.46C83.8605 177.954 87.8252 176.999 89.7475 176.641C87.3447 177.118 80.136 178.073 80.0159 175.448C79.8957 172.583 86.0231 171.509 87.4648 171.271C86.0231 171.509 79.0547 172.106 78.6943 169.958C78.3339 167.691 87.9454 165.304 88.6662 165.184C87.8252 165.304 75.5706 166.616 79.295 162.44C83.0195 158.143 96.7159 157.547 96.7159 157.547C96.7159 157.547 88.1857 153.37 92.1504 152.654C95.7547 151.938 106.808 153.37 109.331 153.728C109.691 153.728 109.932 153.728 109.932 153.728C110.532 153.728 111.133 153.847 111.854 153.847C114.858 157.189 120.024 164.349 120.024 174.612Z" fill="#EB624A"/>
<path d="M63.6763 136.065C63.6763 136.065 68.2417 143.345 67.1604 148.954C66.0791 154.563 52.5029 156.592 46.6158 150.864C40.7288 145.016 57.9094 133.917 57.9094 133.917L63.6763 136.065Z" fill="#275471"/>
<path d="M58.39 133.201C58.39 133.201 63.436 129.621 67.5209 131.769C71.4856 133.917 69.0828 140.242 62.4749 139.765C55.8669 139.288 58.39 133.201 58.39 133.201Z" fill="#EB624A"/>
<path d="M66.0791 149.193L65.8388 149.312C65.3583 149.432 64.7575 149.193 64.6374 148.715L50.1 101.815C49.9798 101.337 50.2201 100.86 50.7007 100.621H50.941C51.4216 100.383 52.0223 100.741 52.1424 101.218L66.6798 147.999C66.8 148.596 66.5597 149.074 66.0791 149.193Z" fill="#F6EEEA"/>
<path d="M63.3159 141.197C62.8353 142.748 60.6727 142.51 60.6727 142.51C63.3159 146.925 58.7504 149.312 58.7504 149.312C59.1108 154.086 54.1849 152.534 54.1849 152.534C54.1849 152.534 55.3864 154.802 53.1036 156.234C50.8209 157.547 44.3331 155.279 42.1705 151.222C41.9302 150.744 41.69 150.267 41.5698 149.79C40.8489 146.567 43.372 144.897 43.372 144.897C42.1705 140.242 45.895 139.168 45.895 139.168C45.6547 134.156 50.2202 134.991 50.2202 134.991C47.6971 132.963 47.0964 128.547 52.5029 128.666C55.7468 128.666 59.231 132.008 61.3936 135.349C62.8353 137.736 63.6763 140.004 63.3159 141.197Z" fill="#F08F5F"/>
<path d="M63.3159 141.197C62.8353 142.748 60.6727 142.51 60.6727 142.51C63.3159 146.925 58.7504 149.312 58.7504 149.312C59.1108 154.086 54.1849 152.534 54.1849 152.534C54.1849 152.534 55.3864 154.802 53.1036 156.234C50.8209 157.547 44.3331 155.279 42.1705 151.222C41.9302 150.744 41.69 150.267 41.5698 149.79C44.9338 152.534 49.7396 151.341 49.7396 151.341C49.7396 151.341 46.6159 148.119 45.4144 145.851C45.5346 145.971 48.8986 147.88 52.0223 147.522C55.0259 147.045 51.5418 142.152 51.3015 141.913C51.5418 142.032 55.7468 145.255 57.9094 143.465C60.072 141.555 52.8633 135.469 52.8633 135.469C52.8633 135.469 58.39 138.81 60.913 138.333C61.9943 138.094 61.8741 136.781 61.3936 135.349C62.8353 137.736 63.6763 140.004 63.3159 141.197Z" fill="#EB624A"/>
<path d="M89.387 164.707C86.1431 168.049 86.023 172.464 86.023 172.464H42.0503C42.0503 172.464 41.2093 167.094 45.5345 164.707H89.387Z" fill="#222C46"/>
<path d="M89.3871 164.707H45.5345L2.04247 145.851H46.0151H46.1353C81.9381 149.432 89.1468 164.23 89.3871 164.588V164.707Z" fill="#F6EEEA"/>
<path d="M2.04245 145.851L0 153.608C0 153.608 23.0676 160.411 42.0504 172.464C42.0504 172.464 42.2906 168.049 45.5345 164.707C45.5345 164.707 38.5662 149.432 2.04245 145.851Z" fill="#CFD1D0"/>
<path d="M87.9453 137.856H133.96L137.925 145.851H90.9489L87.9453 137.856Z" fill="#F6EEEA"/>
<path d="M137.925 145.851C134.441 146.567 130.837 147.761 127.112 149.074C112.214 153.966 99.2389 161.843 92.1504 167.094C87.7051 170.316 82.7792 171.987 77.2525 171.629C68.482 171.151 58.8705 171.509 48.6583 172.464L57.6691 152.534L90.9489 145.851H137.925Z" fill="#F6B03C"/>
<path d="M127.112 149.074C106.327 156.711 85.9029 172.464 85.9029 172.464C86.864 175.09 55.146 174.016 52.9834 172.464C60.5525 163.991 72.4468 155.995 90.1079 149.074H127.112Z" fill="#222C46"/>
<path d="M45.5345 164.707C45.5345 164.707 48.5381 166.258 48.6583 172.464C48.6583 172.464 55.5065 159.217 90.9489 145.851L87.9453 137.856C87.9453 137.856 46.2554 145.732 45.5345 164.707Z" fill="#CFD1D0"/>
<path d="M42.0503 172.464C42.0503 172.464 26.0712 184.756 10.4525 208.982H53.3439C55.5065 205.044 65.8388 187.143 86.023 172.464H42.0503Z" fill="#F6B03C"/>
<path d="M45.5346 172.464C45.5346 172.464 29.4353 184.756 13.9367 208.982H53.8245C56.9482 204.805 71.4856 185.472 85.6626 172.464H45.5346Z" fill="#222C46"/>
<path d="M40.9691 176.283C43.7324 173.777 45.4144 172.464 45.5345 172.464H85.6626H45.5345C45.5345 172.464 43.8525 173.658 40.9691 176.283Z" fill="#DC8E28"/>
<path d="M35.4425 208.982C36.8842 200.39 40.1281 191.678 42.4108 186.308C43.7324 182.966 43.2518 179.147 40.9691 176.283C43.8525 173.658 45.5346 172.464 45.5346 172.464H85.6626C71.4856 185.472 56.9482 204.805 53.8245 208.982H35.4425Z" fill="#252B3B"/>
<path d="M91.1892 177.596C96.7159 183.324 106.448 193.826 117.381 208.982H73.7684C70.6446 204.805 56.1072 185.472 41.9302 172.464H78.9346C83.6202 172.464 87.9454 174.254 91.1892 177.596Z" fill="#F6B03C"/>
<path d="M85.9029 172.464C85.9029 172.464 101.882 184.756 117.501 208.982H77.4928C74.3691 204.805 59.9518 185.472 45.7748 172.464C59.7115 171.629 73.1676 171.509 85.9029 172.464Z" fill="#222C46"/>
<path d="M110.172 39.5193L117.501 45.367C117.501 45.367 116.78 84.5105 96.3554 84.5105C96.3554 84.5105 83.0195 82.7204 80.7367 66.8482C78.5741 51.0953 110.172 39.5193 110.172 39.5193Z" fill="#F08F5F"/>
<path d="M79.5353 68.7576C79.5353 68.7576 83.7403 85.2266 96.2353 85.2266C111.974 85.2266 119.904 64.5807 119.904 45.367L113.536 40.7127C113.536 40.7127 113.055 52.7661 108.37 65.4161C103.684 78.0662 97.0763 74.844 96.7158 84.0332C96.7158 84.0332 96.4756 79.9756 91.0691 77.2308C85.182 74.2473 83.9806 66.0128 83.9806 66.0128L79.5353 68.7576Z" fill="#222C46"/>
<path d="M115.098 31.5238C114.257 37.2521 111.253 41.3097 109.691 43.0998C109.091 43.8158 108.73 44.2932 108.73 44.2932C108.73 44.2932 106.327 67.9225 88.5461 71.2641C85.5425 71.8608 82.8993 71.9801 80.6166 71.8608C69.3231 71.0254 65.5986 61.9555 60.4324 45.2479C57.9094 36.8941 57.3087 28.6597 58.8705 21.6186C61.1533 11.236 67.8813 3.24022 79.4152 0.73408C80.3763 0.4954 81.4576 0.37606 82.5389 0.25672C84.4612 0.0180394 86.3835 0.0180394 88.1857 0.13738H88.6662C100.2 1.0921 111.373 8.2525 114.737 22.3346C114.858 22.812 114.978 23.2894 115.098 23.7667C115.578 26.5115 115.578 29.137 115.098 31.5238Z" fill="#F08F5F"/>
<path d="M115.098 31.5242C113.896 39.4006 108.73 44.2935 108.73 44.2935C108.73 44.2935 106.327 67.9229 88.546 71.2644C85.5424 71.8611 82.8993 71.9804 80.6165 71.8611C89.1468 70.071 94.3129 64.2233 94.7935 53.1247C95.3942 37.9685 90.4683 10.401 90.4683 10.401C89.387 5.50803 88.7863 2.28585 88.6662 0.137726C100.2 1.09245 111.373 8.25285 114.737 22.335C114.858 22.8123 114.978 23.2897 115.098 23.7671C115.578 26.5119 115.578 29.1374 115.098 31.5242Z" fill="#EB624A"/>
<path d="M115.098 31.5242C114.377 31.8822 113.656 32.1209 112.935 32.3595C108.49 33.6723 103.684 43.2195 103.684 43.2195L102.723 35.8204C102.363 33.1949 100.921 30.6888 98.518 29.2567C95.6345 27.4666 92.0302 24.9605 91.3093 23.1704C89.9877 20.0675 88.6662 3.59859 88.6662 3.59859L88.1856 0.137726C99.8395 0.853766 111.373 8.13351 114.737 22.335C114.858 22.8123 114.978 23.2897 115.098 23.7671C115.578 26.5119 115.578 29.1374 115.098 31.5242Z" fill="#222C46"/>
<path d="M115.098 23.7665C87.2245 10.7584 66.8001 17.6801 58.8706 21.6184C61.1533 11.2358 67.8813 3.24 79.4152 0.733859C93.472 -2.36898 110.532 4.4334 114.737 22.3344C114.858 22.8118 114.978 23.2891 115.098 23.7665Z" fill="#FDE7DC"/>
<path d="M109.691 43.0996C111.253 41.3095 114.257 37.2519 115.098 31.5236C114.257 37.2519 111.253 41.3095 109.691 43.0996ZM82.5388 0.256533C83.7402 0.137193 84.9417 0.0178528 86.1431 0.0178528C86.6237 0.0178528 87.1043 0.0178528 87.4647 0.0178528C87.1043 0.0178528 86.6237 0.0178528 86.1431 0.0178528C84.9417 0.0178528 83.7402 0.137193 82.5388 0.256533Z" fill="#FAF275"/>
<path d="M109.691 43.0995L110.172 34.0297C111.013 33.1943 111.974 32.5976 112.935 32.3589C113.656 32.1203 114.377 31.8816 115.098 31.5236C114.257 37.2519 111.253 41.3094 109.691 43.0995ZM115.458 27.824C115.458 26.5113 115.338 25.1985 115.098 23.7665C114.978 23.2891 114.858 22.8117 114.737 22.3344C113.175 15.4126 109.571 10.1617 105.006 6.46214C105.006 6.46214 105.006 6.46214 104.886 6.46214C104.886 6.3428 104.886 6.3428 104.886 6.3428H104.765C101.882 4.07534 98.6381 2.40458 95.2741 1.33052H95.1539C95.0338 1.33052 94.9136 1.21118 94.7935 1.21118C103.924 3.83666 111.974 10.7584 114.737 22.3344C114.858 22.8117 114.978 23.2891 115.098 23.7665C115.338 25.1985 115.458 26.5113 115.458 27.824Z" fill="#FAF05F"/>
<path d="M110.172 34.0297L110.292 30.3302C109.932 26.75 109.211 23.6471 108.37 20.9023C110.532 21.7377 112.815 22.6924 115.098 23.7664C114.978 23.2891 114.857 22.8117 114.737 22.3344C114.857 22.8117 114.978 23.2891 115.098 23.7664C115.338 25.1985 115.458 26.5113 115.458 27.824C115.458 29.1368 115.338 30.3302 115.098 31.5236C114.377 31.8816 113.656 32.1203 112.935 32.3589C111.974 32.5976 111.013 33.1943 110.172 34.0297ZM104.886 6.3428H104.765H104.886ZM104.765 6.3428C101.882 4.07534 98.6381 2.40458 95.274 1.33052C98.6381 2.40458 101.882 4.07534 104.765 6.3428Z" fill="#E95148"/>
<path d="M115.098 23.7665C112.815 22.6925 110.532 21.7377 108.37 20.9024C103.444 5.74618 91.91 1.21125 82.5388 0.256533C83.7402 0.137193 84.9417 0.0178528 86.1431 0.0178528C86.6237 0.0178528 87.1043 0.0178528 87.4647 0.0178528C87.705 0.0178528 87.9453 0.0178528 88.1856 0.137193H88.6661C90.7086 0.256533 92.751 0.614553 94.7935 1.21125C94.9136 1.21125 95.0338 1.33059 95.1539 1.33059H95.2741C98.6381 2.40465 101.882 4.07542 104.765 6.34288H104.886C104.886 6.34288 104.886 6.34288 104.886 6.46222C105.006 6.46222 105.006 6.46222 105.006 6.46222C109.571 10.1618 113.176 15.4127 114.737 22.3344C114.858 22.8118 114.978 23.2892 115.098 23.7665Z" fill="#D6C0C0"/>
<path d="M116.78 40.3547C114.978 43.9349 111.854 47.0378 107.889 47.5151L105.606 41.1901C105.606 41.1901 105.486 39.5193 105.967 37.6099C106.568 34.2684 108.61 29.8528 114.017 29.3754C119.303 28.8981 119.543 34.9844 116.78 40.3547Z" fill="#EB624A"/>
<path d="M116.78 40.3547C118.101 36.6552 119.303 29.8528 113.776 30.5688C109.451 31.1655 107.048 34.9844 105.967 37.6099C106.568 34.2684 108.61 29.8528 114.017 29.3754C119.303 28.8981 119.543 34.9844 116.78 40.3547Z" fill="#F6B03C"/>
<path d="M73.0475 40.5934C73.0475 40.5934 72.2065 44.7703 71.0051 48.3505C69.9238 52.05 77.1324 51.334 77.1324 51.334" stroke="#D5402B" stroke-width="0.431676" stroke-linecap="round" stroke-linejoin="round"/>
</g>
<defs>
<clipPath id="clip0_13_68">
<rect width="167" height="209" fill="white"/>
</clipPath>
</defs>
</svg>
