<svg width="28" height="28" viewBox="0 0 28 28" fill="none" xmlns="http://www.w3.org/2000/svg">
<g clip-path="url(#clip0_33_0)">
<path d="M15.1666 7C15.1666 7.64429 14.6443 8.1666 14 8.1666C13.3557 8.1666 12.8334 7.64429 12.8334 7C12.8334 6.35571 13.3557 5.8334 14 5.8334C14.6443 5.8334 15.1666 6.35571 15.1666 7Z" fill="white"/>
<path d="M14 22.1666C13.517 22.1666 13.125 21.7746 13.125 21.2916V12.25H11.9584C11.4754 12.25 11.0834 11.858 11.0834 11.375C11.0834 10.892 11.4754 10.5 11.9584 10.5H14C14.483 10.5 14.875 10.892 14.875 11.375V21.2916C14.875 21.7746 14.483 22.1666 14 22.1666Z" fill="white"/>
<path d="M14 28C6.28009 28 0 21.7199 0 14C0 6.28009 6.28009 0 14 0C21.7199 0 28 6.28009 28 14C28 21.7199 21.7199 28 14 28ZM14 1.75C7.24503 1.75 1.75 7.24503 1.75 14C1.75 20.755 7.24503 26.25 14 26.25C20.755 26.25 26.25 20.755 26.25 14C26.25 7.24503 20.755 1.75 14 1.75Z" fill="white"/>
<path d="M16.625 22.1666H11.375C10.892 22.1666 10.5 21.7746 10.5 21.2916C10.5 20.8086 10.892 20.4166 11.375 20.4166H16.625C17.108 20.4166 17.5 20.8086 17.5 21.2916C17.5 21.7746 17.108 22.1666 16.625 22.1666Z" fill="white"/>
</g>
<defs>
<clipPath id="clip0_33_0">
<rect width="28" height="28" fill="white"/>
</clipPath>
</defs>
</svg>
