<svg width="161" height="246" viewBox="0 0 161 246" fill="none" xmlns="http://www.w3.org/2000/svg">
<path d="M133.579 0.71814H27.925C12.7946 0.71814 0.529022 13.1641 0.529022 28.517V218.123C0.529022 233.476 12.7946 245.922 27.925 245.922H133.579C148.709 245.922 160.975 233.476 160.975 218.123V28.517C160.975 13.1641 148.709 0.71814 133.579 0.71814Z" fill="#52A8E1"/>
<path fill-rule="evenodd" clip-rule="evenodd" d="M160.975 113.047C152.284 115.048 143.252 116.144 133.957 116.144C70.5115 116.144 18.667 66.3627 15.4173 3.73972C19.196 1.81344 23.4283 0.718109 27.925 0.718109H133.541C148.618 0.718109 160.975 13.0312 160.975 28.1015V113.047Z" fill="black" fill-opacity="0.101961"/>
<path d="M89.632 107.57C89.632 107.57 89.8209 100.205 90.2366 85.5498C90.3499 79.431 90.3499 74.0677 90.2366 69.4975C92.4283 71.0083 95.0734 71.8014 98.2853 71.8014C99.6457 71.8014 101.006 71.5371 102.253 71.046C103.5 70.555 104.558 69.9885 105.314 69.2708C106.107 68.591 106.788 67.9111 107.392 67.1935C107.997 66.5136 108.375 65.9093 108.639 65.4183L109.093 64.7007C109.13 64.8517 109.244 65.0784 109.433 65.305C109.622 65.5694 109.999 66.0981 110.642 66.8158C111.284 67.4956 112.002 68.1377 112.871 68.6665C113.703 69.1575 114.874 69.6485 116.423 70.1018C117.935 70.5173 119.635 70.7439 121.449 70.7439C132.332 70.7439 137.773 63.1898 137.773 48.0818V19.9807H126.966V33.1248C126.966 34.8622 126.361 36.3352 125.114 37.5817C123.83 38.7903 122.356 39.4324 120.618 39.4324C118.88 39.4324 117.406 38.7903 116.197 37.5817C114.95 36.3352 114.345 34.8622 114.345 33.1248V19.9807H103.765V33.1248C103.765 34.2201 103.576 35.2021 103.16 36.1464C102.782 37.0529 102.064 37.846 101.082 38.4881C100.061 39.168 98.8144 39.5079 97.3406 39.5079C92.7683 39.4702 89.1785 37.0151 86.4578 32.1805C84.7952 29.2722 83.3215 25.193 82.1123 19.9807L59.402 39.7723C62.0849 45.5512 64.4277 52.2743 66.3549 59.9416C68.282 67.5712 69.6424 74.8231 70.4737 81.6595C71.3428 88.4959 71.9852 94.9168 72.4387 100.96C72.9299 106.965 73.1566 111.762 73.1566 115.313V120.638L89.632 107.57Z" fill="white"/>
<path d="M47.7188 218.379C46.875 218.379 46.0742 218.297 45.3164 218.133V214.535C45.5664 214.582 45.832 214.633 46.1133 214.688C46.3945 214.75 46.6992 214.781 47.0273 214.781C47.793 214.781 48.3398 214.551 48.668 214.09C48.9961 213.629 49.1602 212.84 49.1602 211.723V195.867H53.8125V211.324C53.8125 213.645 53.3047 215.398 52.2891 216.586C51.2734 217.781 49.75 218.379 47.7188 218.379ZM61.8633 213H57.2812V199.723H61.8633V213ZM57.1641 196.418C57.1641 195.73 57.3555 195.219 57.7383 194.883C58.1211 194.547 58.7383 194.379 59.5898 194.379C60.4414 194.379 61.0625 194.551 61.4531 194.895C61.8438 195.238 62.0391 195.746 62.0391 196.418C62.0391 197.762 61.2227 198.434 59.5898 198.434C57.9727 198.434 57.1641 197.762 57.1641 196.418ZM69.6445 213H65.0625V194.766H69.6445V213ZM77.4258 213H72.8438V199.723H77.4258V213ZM72.7266 196.418C72.7266 195.73 72.918 195.219 73.3008 194.883C73.6836 194.547 74.3008 194.379 75.1523 194.379C76.0039 194.379 76.625 194.551 77.0156 194.895C77.4062 195.238 77.6016 195.746 77.6016 196.418C77.6016 197.762 76.7852 198.434 75.1523 198.434C73.5352 198.434 72.7266 197.762 72.7266 196.418ZM84.75 213.234C83.8047 213.234 82.9766 212.965 82.2656 212.426C81.5625 211.887 81.0156 211.094 80.625 210.047C80.2422 209 80.0508 207.777 80.0508 206.379C80.0508 204.223 80.4844 202.535 81.3516 201.316C82.2188 200.098 83.4102 199.488 84.9258 199.488C85.668 199.488 86.3164 199.637 86.8711 199.934C87.4336 200.23 87.9453 200.73 88.4062 201.434H88.5C88.3516 200.395 88.2773 199.355 88.2773 198.316V194.766H92.8945V213H89.4375L88.4531 211.324H88.2773C87.4883 212.598 86.3125 213.234 84.75 213.234ZM86.625 209.613C87.3594 209.613 87.875 209.383 88.1719 208.922C88.4766 208.461 88.6406 207.75 88.6641 206.789V206.426C88.6641 205.254 88.4961 204.422 88.1602 203.93C87.8242 203.43 87.2969 203.18 86.5781 203.18C85.9766 203.18 85.5078 203.465 85.1719 204.035C84.8438 204.598 84.6797 205.402 84.6797 206.449C84.6797 207.48 84.8477 208.266 85.1836 208.805C85.5195 209.344 86 209.613 86.625 209.613ZM113.297 199.582C113.297 200.645 112.973 201.559 112.324 202.324C111.676 203.082 110.738 203.633 109.512 203.977V204.047C112.371 204.406 113.801 205.758 113.801 208.102C113.801 209.695 113.168 210.949 111.902 211.863C110.645 212.777 108.895 213.234 106.652 213.234C105.73 213.234 104.875 213.168 104.086 213.035C103.305 212.902 102.457 212.66 101.543 212.309V208.465C102.293 208.848 103.055 209.133 103.828 209.32C104.609 209.5 105.328 209.59 105.984 209.59C107 209.59 107.738 209.449 108.199 209.168C108.668 208.879 108.902 208.43 108.902 207.82C108.902 207.352 108.781 206.992 108.539 206.742C108.297 206.484 107.906 206.293 107.367 206.168C106.828 206.035 106.125 205.969 105.258 205.969H104.203V202.488H105.281C107.633 202.488 108.809 201.887 108.809 200.684C108.809 200.23 108.633 199.895 108.281 199.676C107.938 199.457 107.473 199.348 106.887 199.348C105.793 199.348 104.66 199.715 103.488 200.449L101.566 197.355C102.473 196.73 103.398 196.285 104.344 196.02C105.297 195.754 106.387 195.621 107.613 195.621C109.387 195.621 110.777 195.973 111.785 196.676C112.793 197.379 113.297 198.348 113.297 199.582Z" fill="white"/>
</svg>
