<svg width="161" height="246" viewBox="0 0 161 246" fill="none" xmlns="http://www.w3.org/2000/svg">
<path d="M133.566 0.71814H27.9123C12.782 0.71814 0.516403 13.1641 0.516403 28.517V218.123C0.516403 233.476 12.782 245.922 27.9123 245.922H133.566C148.697 245.922 160.962 233.476 160.962 218.123V28.517C160.962 13.1641 148.697 0.71814 133.566 0.71814Z" fill="#C75E5E"/>
<path fill-rule="evenodd" clip-rule="evenodd" d="M161 113.047C152.309 115.048 143.24 116.144 133.944 116.144C70.4989 116.144 18.6922 66.3627 15.4425 3.73972C19.1834 1.81344 23.4534 0.718109 27.9501 0.718109H133.566C148.643 0.718109 161 13.0312 161 28.1015V113.047Z" fill="black" fill-opacity="0.101961"/>
<path d="M123.364 120.563L136.514 98.3162H130.619C124.535 98.354 119.358 97.6742 115.088 96.1256C110.78 94.6148 108.022 92.5752 106.813 89.8935C105.868 87.8539 105.981 85.8521 107.153 83.8503L118.565 63.7187C119.774 61.868 120.567 60.3572 120.87 59.2241C121.21 58.091 121.172 57.109 120.87 56.3536C120.605 55.5604 120.038 54.9183 119.169 54.3517C118.338 53.7852 117.469 53.4075 116.637 53.1809C115.768 52.9165 114.295 52.501 112.141 51.8967C111.801 51.7834 111.309 51.6701 110.743 51.519C110.214 51.3301 109.156 50.9524 107.72 50.3859C106.284 49.8571 104.999 49.2528 103.865 48.6862C102.769 48.1574 101.749 47.402 100.767 46.5333C99.822 45.7024 99.293 44.8336 99.2552 44.0027C99.104 41.9631 100.238 40.1879 102.58 38.6771C104.961 37.1663 107.417 36.4109 109.987 36.4487C111.423 36.4487 112.821 36.6753 114.181 37.0908C115.579 37.5062 116.751 37.9972 117.658 38.5638C118.602 39.1303 119.434 39.6969 120.152 40.3012C120.87 40.9055 121.399 41.3588 121.739 41.7743L122.268 42.3786L133.642 27.1572C133.377 26.9683 133.037 26.7039 132.659 26.364C132.244 26.0241 131.337 25.4575 130.014 24.5888C128.692 23.7579 127.331 22.9647 125.971 22.3604C124.573 21.7183 122.872 21.114 120.907 20.6229C118.98 20.0942 117.053 19.8298 115.239 19.8298C112.708 19.8298 110.365 20.0942 108.173 20.6229C105.981 21.114 104.205 21.7183 102.845 22.3981C101.485 23.0402 100.2 23.909 98.9151 24.9665C97.6681 26.0241 96.799 26.8928 96.2322 27.5349C95.6654 28.1392 95.0986 28.9702 94.3806 29.8766L82.1752 46.4578C80.1347 49.1394 78.8121 51.7078 78.132 54.1251C77.4896 56.5424 77.4896 58.8086 78.1697 60.9238C79.1144 63.7565 81.155 66.2116 84.2535 68.2512C87.3521 70.2908 91.2442 71.8016 95.8543 72.8214L86.0295 90.2712C85.9162 90.5356 85.765 90.8755 85.5005 91.291C84.8959 92.5374 84.4047 93.4817 84.1024 94.1238C83.8001 94.7281 83.4222 95.5968 82.9688 96.5788C82.4775 97.5986 82.1752 98.3918 81.9863 99.0339C81.7973 99.6382 81.6462 100.356 81.495 101.187C81.3817 101.98 81.3439 102.735 81.3817 103.415C81.4195 104.133 81.5328 104.775 81.7973 105.493C83.3088 110.176 88.259 113.953 96.5345 116.786C100.691 118.259 105.037 119.241 109.496 119.883C113.992 120.487 117.431 120.752 119.812 120.638L123.364 120.563Z" fill="white"/>
<path d="M54.7188 218.379C53.875 218.379 53.0742 218.297 52.3164 218.133V214.535C52.5664 214.582 52.832 214.633 53.1133 214.688C53.3945 214.75 53.6992 214.781 54.0273 214.781C54.793 214.781 55.3398 214.551 55.668 214.09C55.9961 213.629 56.1602 212.84 56.1602 211.723V195.867H60.8125V211.324C60.8125 213.645 60.3047 215.398 59.2891 216.586C58.2734 217.781 56.75 218.379 54.7188 218.379ZM68.8633 213H64.2812V199.723H68.8633V213ZM64.1641 196.418C64.1641 195.73 64.3555 195.219 64.7383 194.883C65.1211 194.547 65.7383 194.379 66.5898 194.379C67.4414 194.379 68.0625 194.551 68.4531 194.895C68.8438 195.238 69.0391 195.746 69.0391 196.418C69.0391 197.762 68.2227 198.434 66.5898 198.434C64.9727 198.434 64.1641 197.762 64.1641 196.418ZM76.6445 213H72.0625V194.766H76.6445V213ZM84.4258 213H79.8438V199.723H84.4258V213ZM79.7266 196.418C79.7266 195.73 79.918 195.219 80.3008 194.883C80.6836 194.547 81.3008 194.379 82.1523 194.379C83.0039 194.379 83.625 194.551 84.0156 194.895C84.4062 195.238 84.6016 195.746 84.6016 196.418C84.6016 197.762 83.7852 198.434 82.1523 198.434C80.5352 198.434 79.7266 197.762 79.7266 196.418ZM91.75 213.234C90.8047 213.234 89.9766 212.965 89.2656 212.426C88.5625 211.887 88.0156 211.094 87.625 210.047C87.2422 209 87.0508 207.777 87.0508 206.379C87.0508 204.223 87.4844 202.535 88.3516 201.316C89.2188 200.098 90.4102 199.488 91.9258 199.488C92.668 199.488 93.3164 199.637 93.8711 199.934C94.4336 200.23 94.9453 200.73 95.4062 201.434H95.5C95.3516 200.395 95.2773 199.355 95.2773 198.316V194.766H99.8945V213H96.4375L95.4531 211.324H95.2773C94.4883 212.598 93.3125 213.234 91.75 213.234ZM93.625 209.613C94.3594 209.613 94.875 209.383 95.1719 208.922C95.4766 208.461 95.6406 207.75 95.6641 206.789V206.426C95.6641 205.254 95.4961 204.422 95.1602 203.93C94.8242 203.43 94.2969 203.18 93.5781 203.18C92.9766 203.18 92.5078 203.465 92.1719 204.035C91.8438 204.598 91.6797 205.402 91.6797 206.449C91.6797 207.48 91.8477 208.266 92.1836 208.805C92.5195 209.344 93 209.613 93.625 209.613ZM121.422 209.684H119.535V213H114.965V209.684H108.133V206.285L115.258 195.867H119.535V206.227H121.422V209.684ZM114.965 206.227V204.234C114.965 203.859 114.977 203.355 115 202.723C115.031 202.082 115.055 201.746 115.07 201.715H114.941C114.676 202.316 114.375 202.879 114.039 203.402L112.141 206.227H114.965Z" fill="white"/>
</svg>
