<svg width="161" height="246" viewBox="0 0 161 246" fill="none" xmlns="http://www.w3.org/2000/svg">
<path d="M133.05 0.773193H27.3959C12.2656 0.773193 0 13.2192 0 28.572V218.178C0 233.531 12.2656 245.977 27.3959 245.977H133.05C148.18 245.977 160.446 233.531 160.446 218.178V28.572C160.446 13.2192 148.18 0.773193 133.05 0.773193Z" fill="#9F60B9"/>
<path fill-rule="evenodd" clip-rule="evenodd" d="M160.446 113.102C151.755 115.104 142.723 116.161 133.428 116.161C69.9825 116.161 18.1758 66.4178 14.9261 3.79487C18.667 1.86859 22.8992 0.773254 27.396 0.773254H133.05C148.127 0.773254 160.446 13.0863 160.446 28.1566V113.102Z" fill="black" fill-opacity="0.101961"/>
<path d="M100.099 120.694H113.174C119.635 120.694 124.85 118.616 128.818 114.537C132.785 110.42 134.788 105.321 134.788 99.2778V82.7723C134.788 70.1948 133.503 59.1659 131.009 49.7233C128.478 40.3186 125.455 33.5577 121.903 29.403C119.56 26.7213 116.726 24.4551 113.438 22.6799C110.151 20.9047 107.014 20.0359 103.953 20.0359C101.988 20.0359 100.175 20.4514 98.512 21.2824C96.8494 22.1511 95.4512 23.2086 94.2043 24.5684C92.9951 25.9281 91.8992 27.6278 90.8034 29.7429C89.7453 31.858 88.8384 33.9354 88.1205 36.0127C87.3647 38.0523 86.6468 40.4696 85.891 43.1513C83.2081 53.0471 81.2054 62.0742 79.9206 70.3836C78.598 78.7308 78.069 85.4539 78.2201 90.6662C78.3713 95.8785 78.7114 99.9955 79.2782 103.055C79.845 106.152 80.563 108.456 81.4699 109.967C83.5104 113.479 85.9288 116.161 88.8006 117.974C91.7103 119.787 95.489 120.694 100.099 120.694ZM96.5471 85.5295C92.8817 85.5295 91.0301 83.2633 90.9167 78.7308C90.8034 78.2398 90.8034 77.069 90.9167 75.256C91.0301 73.443 91.1057 71.2901 91.1813 68.8351C91.2568 66.4178 91.5591 63.8116 92.0882 61.1299C92.5794 58.4105 93.184 55.9176 93.902 53.6137C94.5821 51.3474 95.6024 49.4589 96.9627 47.9859C98.3231 46.4751 99.8346 45.7575 101.573 45.7575C103.462 45.7575 105.238 46.0219 106.939 46.5506C108.639 47.1172 110.188 47.9481 111.549 49.0057C112.909 50.0633 113.892 50.8942 114.421 51.3852C114.912 51.8385 115.63 52.5939 116.499 53.5004C118.464 55.6155 120.051 59.9591 121.222 66.4555C122.356 72.952 122.318 79.2596 121.109 85.4539L96.5471 85.5295Z" fill="white"/>
<path d="M47.7188 217.379C46.875 217.379 46.0742 217.297 45.3164 217.133V213.535C45.5664 213.582 45.832 213.633 46.1133 213.688C46.3945 213.75 46.6992 213.781 47.0273 213.781C47.793 213.781 48.3398 213.551 48.668 213.09C48.9961 212.629 49.1602 211.84 49.1602 210.723V194.867H53.8125V210.324C53.8125 212.645 53.3047 214.398 52.2891 215.586C51.2734 216.781 49.75 217.379 47.7188 217.379ZM61.8633 212H57.2812V198.723H61.8633V212ZM57.1641 195.418C57.1641 194.73 57.3555 194.219 57.7383 193.883C58.1211 193.547 58.7383 193.379 59.5898 193.379C60.4414 193.379 61.0625 193.551 61.4531 193.895C61.8438 194.238 62.0391 194.746 62.0391 195.418C62.0391 196.762 61.2227 197.434 59.5898 197.434C57.9727 197.434 57.1641 196.762 57.1641 195.418ZM69.6445 212H65.0625V193.766H69.6445V212ZM77.4258 212H72.8438V198.723H77.4258V212ZM72.7266 195.418C72.7266 194.73 72.918 194.219 73.3008 193.883C73.6836 193.547 74.3008 193.379 75.1523 193.379C76.0039 193.379 76.625 193.551 77.0156 193.895C77.4062 194.238 77.6016 194.746 77.6016 195.418C77.6016 196.762 76.7852 197.434 75.1523 197.434C73.5352 197.434 72.7266 196.762 72.7266 195.418ZM84.75 212.234C83.8047 212.234 82.9766 211.965 82.2656 211.426C81.5625 210.887 81.0156 210.094 80.625 209.047C80.2422 208 80.0508 206.777 80.0508 205.379C80.0508 203.223 80.4844 201.535 81.3516 200.316C82.2188 199.098 83.4102 198.488 84.9258 198.488C85.668 198.488 86.3164 198.637 86.8711 198.934C87.4336 199.23 87.9453 199.73 88.4062 200.434H88.5C88.3516 199.395 88.2773 198.355 88.2773 197.316V193.766H92.8945V212H89.4375L88.4531 210.324H88.2773C87.4883 211.598 86.3125 212.234 84.75 212.234ZM86.625 208.613C87.3594 208.613 87.875 208.383 88.1719 207.922C88.4766 207.461 88.6406 206.75 88.6641 205.789V205.426C88.6641 204.254 88.4961 203.422 88.1602 202.93C87.8242 202.43 87.2969 202.18 86.5781 202.18C85.9766 202.18 85.5078 202.465 85.1719 203.035C84.8438 203.598 84.6797 204.402 84.6797 205.449C84.6797 206.48 84.8477 207.266 85.1836 207.805C85.5195 208.344 86 208.613 86.625 208.613ZM108.504 200.773C109.488 200.773 110.375 201.004 111.164 201.465C111.961 201.918 112.578 202.562 113.016 203.398C113.461 204.234 113.684 205.199 113.684 206.293C113.684 208.207 113.105 209.676 111.949 210.699C110.801 211.723 109.059 212.234 106.723 212.234C104.723 212.234 103.09 211.926 101.824 211.309V207.512C102.504 207.824 103.27 208.082 104.121 208.285C104.98 208.488 105.719 208.59 106.336 208.59C107.195 208.59 107.855 208.41 108.316 208.051C108.777 207.684 109.008 207.145 109.008 206.434C109.008 205.777 108.773 205.266 108.305 204.898C107.836 204.531 107.125 204.348 106.172 204.348C105.445 204.348 104.66 204.484 103.816 204.758L102.117 203.914L102.762 194.867H112.535V198.723H106.699L106.488 200.984C107.098 200.867 107.531 200.805 107.789 200.797C108.047 200.781 108.285 200.773 108.504 200.773Z" fill="white"/>
</svg>
