<svg width="161" height="246" viewBox="0 0 161 246" fill="none" xmlns="http://www.w3.org/2000/svg">
<path d="M133.566 0.0228271H27.9123C12.782 0.0228271 0.516403 12.4688 0.516403 27.8217V217.428C0.516403 232.781 12.782 245.227 27.9123 245.227H133.566C148.697 245.227 160.962 232.781 160.962 217.428V27.8217C160.962 12.4688 148.697 0.0228271 133.566 0.0228271Z" fill="#3CC6AB"/>
<path fill-rule="evenodd" clip-rule="evenodd" d="M161 112.351C152.309 114.353 143.24 115.449 133.944 115.449C70.4989 115.449 18.6922 65.6674 15.4425 3.04444C19.1834 1.11816 23.4534 0.0228271 27.9501 0.0228271H133.566C148.643 0.0228271 161 12.3359 161 27.4062V112.351Z" fill="black" fill-opacity="0.101961"/>
<path d="M101.371 106.875C101.371 106.875 101.56 100.038 102.014 86.3278C102.127 79.0759 102.089 72.8061 101.938 67.4805C105.452 69.8978 109.156 71.1064 113.123 71.1064C118.565 71.1064 123.175 69.1801 127.029 65.2898C130.846 61.4372 132.773 56.7915 132.773 51.3526V19.2857H122.003V24.7624C122.003 28.9549 120.756 32.3542 118.3 34.9226C115.806 37.5287 112.745 38.8129 109.042 38.8129C106.85 38.8129 104.886 38.133 103.072 36.8111C101.258 35.4891 99.7842 33.865 98.6884 31.9387C97.6303 30.0124 96.6478 28.0862 95.8921 26.1599C95.0985 24.2336 94.5695 22.6095 94.2672 21.2875L93.8138 19.2857L71.1035 39.1151C73.7486 44.9694 75.9781 51.7303 77.8674 59.4732C79.7568 67.1783 81.1172 74.4302 81.9863 81.2288C82.8176 88.0275 83.4978 94.4106 83.989 100.416C84.4425 106.384 84.7448 111.143 84.7826 114.618L84.8581 119.943L101.371 106.875Z" fill="white"/>
<path d="M54.7188 217.379C53.875 217.379 53.0742 217.297 52.3164 217.133V213.535C52.5664 213.582 52.832 213.633 53.1133 213.688C53.3945 213.75 53.6992 213.781 54.0273 213.781C54.793 213.781 55.3398 213.551 55.668 213.09C55.9961 212.629 56.1602 211.84 56.1602 210.723V194.867H60.8125V210.324C60.8125 212.645 60.3047 214.398 59.2891 215.586C58.2734 216.781 56.75 217.379 54.7188 217.379Z" fill="white"/>
<path d="M68.8633 212H64.2812V198.723H68.8633V212ZM64.1641 195.418C64.1641 194.73 64.3555 194.219 64.7383 193.883C65.1211 193.547 65.7383 193.379 66.5898 193.379C67.4414 193.379 68.0625 193.551 68.4531 193.895C68.8438 194.238 69.0391 194.746 69.0391 195.418C69.0391 196.762 68.2227 197.434 66.5898 197.434C64.9727 197.434 64.1641 196.762 64.1641 195.418Z" fill="white"/>
<path d="M76.6445 212H72.0625V193.766H76.6445V212Z" fill="white"/>
<path d="M84.4258 212H79.8438V198.723H84.4258V212ZM79.7266 195.418C79.7266 194.73 79.918 194.219 80.3008 193.883C80.6836 193.547 81.3008 193.379 82.1523 193.379C83.0039 193.379 83.625 193.551 84.0156 193.895C84.4062 194.238 84.6016 194.746 84.6016 195.418C84.6016 196.762 83.7852 197.434 82.1523 197.434C80.5352 197.434 79.7266 196.762 79.7266 195.418Z" fill="white"/>
<path d="M91.75 212.234C90.8047 212.234 89.9766 211.965 89.2656 211.426C88.5625 210.887 88.0156 210.094 87.625 209.047C87.2422 208 87.0508 206.777 87.0508 205.379C87.0508 203.223 87.4844 201.535 88.3516 200.316C89.2188 199.098 90.4102 198.488 91.9258 198.488C92.668 198.488 93.3164 198.637 93.8711 198.934C94.4336 199.23 94.9453 199.73 95.4062 200.434H95.5C95.3516 199.395 95.2773 198.355 95.2773 197.316V193.766H99.8945V212H96.4375L95.4531 210.324H95.2773C94.4883 211.598 93.3125 212.234 91.75 212.234ZM93.625 208.613C94.3594 208.613 94.875 208.383 95.1719 207.922C95.4766 207.461 95.6406 206.75 95.6641 205.789V205.426C95.6641 204.254 95.4961 203.422 95.1602 202.93C94.8242 202.43 94.2969 202.18 93.5781 202.18C92.9766 202.18 92.5078 202.465 92.1719 203.035C91.8438 203.598 91.6797 204.402 91.6797 205.449C91.6797 206.48 91.8477 207.266 92.1836 207.805C92.5195 208.344 93 208.613 93.625 208.613Z" fill="white"/>
<path d="M120.871 212H108.438V208.953L112.621 204.723C113.816 203.473 114.598 202.621 114.965 202.168C115.332 201.707 115.586 201.312 115.727 200.984C115.875 200.656 115.949 200.312 115.949 199.953C115.949 199.508 115.805 199.156 115.516 198.898C115.227 198.641 114.82 198.512 114.297 198.512C113.758 198.512 113.211 198.668 112.656 198.98C112.109 199.285 111.488 199.738 110.793 200.34L108.25 197.363C109.133 196.574 109.875 196.012 110.477 195.676C111.078 195.332 111.73 195.07 112.434 194.891C113.145 194.711 113.941 194.621 114.824 194.621C115.934 194.621 116.922 194.816 117.789 195.207C118.664 195.598 119.34 196.156 119.816 196.883C120.301 197.602 120.543 198.41 120.543 199.309C120.543 199.98 120.457 200.602 120.285 201.172C120.121 201.742 119.863 202.305 119.512 202.859C119.16 203.406 118.691 203.984 118.105 204.594C117.527 205.203 116.289 206.359 114.391 208.062V208.18H120.871V212Z" fill="white"/>
</svg>
