<svg width="161" height="246" viewBox="0 0 161 246" fill="none" xmlns="http://www.w3.org/2000/svg">
<path d="M133.579 0.0228271H27.925C12.7946 0.0228271 0.529022 12.4688 0.529022 27.8217V217.428C0.529022 232.781 12.7946 245.227 27.925 245.227H133.579C148.709 245.227 160.975 232.781 160.975 217.428V27.8217C160.975 12.4688 148.709 0.0228271 133.579 0.0228271Z" fill="#EB6759"/>
<path fill-rule="evenodd" clip-rule="evenodd" d="M160.975 112.351C152.284 114.353 143.252 115.449 133.957 115.449C70.5115 115.449 18.667 65.6674 15.4173 3.04444C19.196 1.11816 23.4283 0.0228271 27.925 0.0228271H133.541C148.618 0.0228271 160.975 12.3359 160.975 27.4062V112.351Z" fill="black" fill-opacity="0.101961"/>
<path d="M106.901 119.943L123.49 106.875C123.49 106.875 123.716 102.493 124.132 93.6552C125.039 65.4031 122.961 42.741 117.935 25.6311C117.292 23.4027 116.612 21.2498 115.857 19.2857L93.184 39.1151C95.8291 44.5162 98.1342 51.0127 100.061 58.5667C101.951 66.1585 103.349 73.3726 104.18 80.2846C105.049 87.1965 105.654 93.693 106.145 99.774C106.636 105.893 106.901 110.803 106.901 114.504V119.943Z" fill="white"/>
<path d="M47.7188 217.379C46.875 217.379 46.0742 217.297 45.3164 217.133V213.535C45.5664 213.582 45.832 213.633 46.1133 213.688C46.3945 213.75 46.6992 213.781 47.0273 213.781C47.793 213.781 48.3398 213.551 48.668 213.09C48.9961 212.629 49.1602 211.84 49.1602 210.723V194.867H53.8125V210.324C53.8125 212.645 53.3047 214.398 52.2891 215.586C51.2734 216.781 49.75 217.379 47.7188 217.379ZM61.8633 212H57.2812V198.723H61.8633V212ZM57.1641 195.418C57.1641 194.73 57.3555 194.219 57.7383 193.883C58.1211 193.547 58.7383 193.379 59.5898 193.379C60.4414 193.379 61.0625 193.551 61.4531 193.895C61.8438 194.238 62.0391 194.746 62.0391 195.418C62.0391 196.762 61.2227 197.434 59.5898 197.434C57.9727 197.434 57.1641 196.762 57.1641 195.418ZM69.6445 212H65.0625V193.766H69.6445V212ZM77.4258 212H72.8438V198.723H77.4258V212ZM72.7266 195.418C72.7266 194.73 72.918 194.219 73.3008 193.883C73.6836 193.547 74.3008 193.379 75.1523 193.379C76.0039 193.379 76.625 193.551 77.0156 193.895C77.4062 194.238 77.6016 194.746 77.6016 195.418C77.6016 196.762 76.7852 197.434 75.1523 197.434C73.5352 197.434 72.7266 196.762 72.7266 195.418ZM84.75 212.234C83.8047 212.234 82.9766 211.965 82.2656 211.426C81.5625 210.887 81.0156 210.094 80.625 209.047C80.2422 208 80.0508 206.777 80.0508 205.379C80.0508 203.223 80.4844 201.535 81.3516 200.316C82.2188 199.098 83.4102 198.488 84.9258 198.488C85.668 198.488 86.3164 198.637 86.8711 198.934C87.4336 199.23 87.9453 199.73 88.4062 200.434H88.5C88.3516 199.395 88.2773 198.355 88.2773 197.316V193.766H92.8945V212H89.4375L88.4531 210.324H88.2773C87.4883 211.598 86.3125 212.234 84.75 212.234ZM86.625 208.613C87.3594 208.613 87.875 208.383 88.1719 207.922C88.4766 207.461 88.6406 206.75 88.6641 205.789V205.426C88.6641 204.254 88.4961 203.422 88.1602 202.93C87.8242 202.43 87.2969 202.18 86.5781 202.18C85.9766 202.18 85.5078 202.465 85.1719 203.035C84.8438 203.598 84.6797 204.402 84.6797 205.449C84.6797 206.48 84.8477 207.266 85.1836 207.805C85.5195 208.344 86 208.613 86.625 208.613ZM111.762 212H107.062V202.93C107.062 201.828 107.086 200.82 107.133 199.906C106.844 200.258 106.484 200.625 106.055 201.008L104.109 202.613L101.707 199.66L107.59 194.867H111.762V212Z" fill="white"/>
</svg>
