<svg width="161" height="246" viewBox="0 0 161 246" fill="none" xmlns="http://www.w3.org/2000/svg">
<path d="M133.566 0.773193H27.9123C12.782 0.773193 0.516403 13.2192 0.516403 28.572V218.178C0.516403 233.531 12.782 245.977 27.9123 245.977H133.566C148.697 245.977 160.962 233.531 160.962 218.178V28.572C160.962 13.2192 148.697 0.773193 133.566 0.773193Z" fill="#EA9143"/>
<path fill-rule="evenodd" clip-rule="evenodd" d="M161 113.102C152.309 115.104 143.24 116.161 133.944 116.161C70.4989 116.161 18.6922 66.4178 15.4425 3.79487C19.1834 1.86859 23.4534 0.773254 27.9501 0.773254H133.566C148.643 0.773254 161 13.0863 161 28.1566V113.102Z" fill="black" fill-opacity="0.101961"/>
<path d="M124.195 120.694L143.996 101.166C138.932 96.7851 135.229 91.9883 132.924 86.776C130.581 81.5637 129.447 76.2759 129.447 70.9503V20.0362C129.296 20.0739 129.107 20.1495 128.843 20.2628C128.578 20.3761 128.049 20.565 127.142 20.8293C126.273 21.1315 125.329 21.4337 124.422 21.6981C123.477 21.9625 122.268 22.3024 120.794 22.6045C119.32 22.9445 117.847 23.2466 116.335 23.4733C114.861 23.6999 113.161 23.8887 111.272 24.0398C109.42 24.2287 107.531 24.3042 105.641 24.3042C102.354 24.3042 98.8017 23.9643 95.0607 23.2089C91.3198 22.4535 88.3724 21.7736 86.2563 21.056L83.1577 19.9606V47.1551C83.1955 47.1929 83.271 47.2684 83.3088 47.3062C83.3466 47.344 83.4978 47.4573 83.7623 47.6084C83.989 47.7595 84.2535 47.9105 84.5558 48.0238C84.8581 48.1749 85.2738 48.3638 85.7272 48.5526C86.2185 48.7415 86.7475 48.9303 87.2765 49.1192C87.8433 49.308 88.4857 49.4969 89.2415 49.6857C90.035 49.8368 90.8285 50.0257 91.6977 50.139C92.529 50.2523 93.5492 50.3656 94.6073 50.4411C95.7031 50.5167 96.8368 50.5544 98.0082 50.5544C99.104 50.5544 100.162 50.5167 101.145 50.4789C102.165 50.4411 103.034 50.3656 103.827 50.2523C104.583 50.139 105.301 50.0257 105.944 49.9124C106.548 49.799 107.115 49.7235 107.568 49.6102C107.984 49.4969 108.362 49.4213 108.702 49.308C109.042 49.1947 109.269 49.1192 109.42 49.0814L109.609 49.0059V79.222C109.458 86.8893 110.629 94.4434 113.199 102.035C115.806 109.627 119.471 115.821 124.195 120.694Z" fill="white"/>
<path d="M54.7188 217.379C53.875 217.379 53.0742 217.297 52.3164 217.133V213.535C52.5664 213.582 52.832 213.633 53.1133 213.688C53.3945 213.75 53.6992 213.781 54.0273 213.781C54.793 213.781 55.3398 213.551 55.668 213.09C55.9961 212.629 56.1602 211.84 56.1602 210.723V194.867H60.8125V210.324C60.8125 212.645 60.3047 214.398 59.2891 215.586C58.2734 216.781 56.75 217.379 54.7188 217.379ZM68.8633 212H64.2812V198.723H68.8633V212ZM64.1641 195.418C64.1641 194.73 64.3555 194.219 64.7383 193.883C65.1211 193.547 65.7383 193.379 66.5898 193.379C67.4414 193.379 68.0625 193.551 68.4531 193.895C68.8438 194.238 69.0391 194.746 69.0391 195.418C69.0391 196.762 68.2227 197.434 66.5898 197.434C64.9727 197.434 64.1641 196.762 64.1641 195.418ZM76.6445 212H72.0625V193.766H76.6445V212ZM84.4258 212H79.8438V198.723H84.4258V212ZM79.7266 195.418C79.7266 194.73 79.918 194.219 80.3008 193.883C80.6836 193.547 81.3008 193.379 82.1523 193.379C83.0039 193.379 83.625 193.551 84.0156 193.895C84.4062 194.238 84.6016 194.746 84.6016 195.418C84.6016 196.762 83.7852 197.434 82.1523 197.434C80.5352 197.434 79.7266 196.762 79.7266 195.418ZM91.75 212.234C90.8047 212.234 89.9766 211.965 89.2656 211.426C88.5625 210.887 88.0156 210.094 87.625 209.047C87.2422 208 87.0508 206.777 87.0508 205.379C87.0508 203.223 87.4844 201.535 88.3516 200.316C89.2188 199.098 90.4102 198.488 91.9258 198.488C92.668 198.488 93.3164 198.637 93.8711 198.934C94.4336 199.23 94.9453 199.73 95.4062 200.434H95.5C95.3516 199.395 95.2773 198.355 95.2773 197.316V193.766H99.8945V212H96.4375L95.4531 210.324H95.2773C94.4883 211.598 93.3125 212.234 91.75 212.234ZM93.625 208.613C94.3594 208.613 94.875 208.383 95.1719 207.922C95.4766 207.461 95.6406 206.75 95.6641 205.789V205.426C95.6641 204.254 95.4961 203.422 95.1602 202.93C94.8242 202.43 94.2969 202.18 93.5781 202.18C92.9766 202.18 92.5078 202.465 92.1719 203.035C91.8438 203.598 91.6797 204.402 91.6797 205.449C91.6797 206.48 91.8477 207.266 92.1836 207.805C92.5195 208.344 93 208.613 93.625 208.613ZM108.543 204.758C108.543 202.367 108.883 200.434 109.562 198.957C110.25 197.473 111.258 196.379 112.586 195.676C113.922 194.973 115.566 194.621 117.52 194.621C118.215 194.621 119.027 194.688 119.957 194.82V198.441C119.176 198.293 118.328 198.219 117.414 198.219C115.867 198.219 114.715 198.559 113.957 199.238C113.199 199.918 112.785 201.027 112.715 202.566H112.855C113.559 201.238 114.688 200.574 116.242 200.574C117.766 200.574 118.945 201.066 119.781 202.051C120.625 203.027 121.047 204.391 121.047 206.141C121.047 208.023 120.516 209.512 119.453 210.605C118.391 211.691 116.906 212.234 115 212.234C112.977 212.234 111.395 211.578 110.254 210.266C109.113 208.953 108.543 207.117 108.543 204.758ZM114.895 208.566C115.387 208.566 115.785 208.383 116.09 208.016C116.402 207.641 116.559 207.047 116.559 206.234C116.559 204.844 116.02 204.148 114.941 204.148C114.41 204.148 113.977 204.328 113.641 204.688C113.312 205.047 113.148 205.484 113.148 206C113.148 206.75 113.309 207.367 113.629 207.852C113.949 208.328 114.371 208.566 114.895 208.566Z" fill="white"/>
</svg>
