<?xml version="1.0" encoding="UTF-8"?>
<!DOCTYPE svg PUBLIC "-//W3C//DTD SVG 1.1//EN" "http://www.w3.org/Graphics/SVG/1.1/DTD/svg11.dtd">
<!-- Creator: CorelDRAW 2021.5 -->
<svg xmlns="http://www.w3.org/2000/svg" xml:space="preserve" width="11.6416mm" height="11.6416mm" version="1.1" style="shape-rendering:geometricPrecision; text-rendering:geometricPrecision; image-rendering:optimizeQuality; fill-rule:evenodd; clip-rule:evenodd"
viewBox="0 0 287.4 287.4"
 xmlns:xlink="http://www.w3.org/1999/xlink"
 xmlns:xodm="http://www.corel.com/coreldraw/odm/2003">
 <defs>
  <style type="text/css">
   <![CDATA[
    .fil0 {fill:#2C3E50}
    .fil3 {fill:#2F7CF2}
    .fil1 {fill:#78AAF7}
    .fil2 {fill:#B6D1FB}
   ]]>
  </style>
 </defs>
 <g id="Layer_x0020_1">
  <metadata id="CorelCorpID_0Corel-Layer"/>
  <rect class="fil0" width="287.4" height="287.4" rx="42.03" ry="42.03"/>
  <g id="_1718492828304">
   <polygon class="fil1" points="132.05,68.75 35.21,125.7 130.57,182.14 204.39,138.76 233.98,156.27 257.18,142.41 "/>
   <path class="fil2" d="M130.57 218.65c0,0 73.82,-42.19 73.82,-43.38 0,-1.19 0,-36.51 0,-36.51l-73.82 43.38c0,0 -12.38,20.65 0,36.51z"/>
   <polygon class="fil3" points="233.98,156.27 233.98,192.78 204.39,175.27 204.39,138.76 "/>
   <polygon class="fil2" points="257.18,142.41 233.98,156.27 233.98,192.78 257.18,178.91 "/>
   <path class="fil3" d="M35.21 125.7c0,0 -11.24,18.32 0,36.51l95.36 56.44c0,0 -12.17,-13.06 0,-36.51l-95.36 -56.44z"/>
   <path class="fil3" d="M185.73 130.41c-2.5,1.48 -5,2.97 -7.5,4.45 -1.74,1.01 -3.43,2.03 -5.17,3.05 -4.58,2.67 -9.16,5.38 -13.74,8.1 -4.58,2.71 -9.16,5.38 -13.74,8.1 -4.24,2.5 -8.48,5 -12.72,7.46 -0.04,0.04 -0.04,0.04 -0.04,0.04 -4.15,-2.46 -8.35,-4.92 -12.51,-7.38 0.04,0 0.04,-0.04 0.08,-0.04 -5.93,-3.52 -11.87,-6.99 -17.81,-10.51 -5.94,-3.52 -11.87,-7.04 -17.81,-10.52 4.24,-2.5 8.44,-4.96 12.68,-7.46 5.98,3.52 11.87,7 17.81,10.52 5.93,3.48 11.87,7 17.81,10.52 4.58,-2.72 9.16,-5.39 13.74,-8.1 4.58,-2.71 9.16,-5.38 13.74,-8.1 -2.63,-1.57 -5.34,-3.14 -8.01,-4.75 -5.26,3.14 -10.56,6.23 -15.81,9.33 -4.67,-2.76 -9.33,-5.51 -14.03,-8.27 -4.67,-2.76 -9.33,-5.51 -14.03,-8.31 4.75,-2.76 9.5,-5.55 14.25,-8.35 4.75,-2.8 9.5,-5.6 14.24,-8.4 4.11,2.46 8.23,4.88 12.38,7.3 4.11,2.41 8.18,4.83 12.3,7.25 1.14,0.68 2.29,1.36 3.39,1.99 6.87,4.03 13.69,8.1 20.52,12.08zm-39.13 -12c-3.01,1.78 -5.98,3.52 -8.95,5.26 -2.93,-1.74 -5.85,-3.43 -8.78,-5.17 2.93,-1.78 5.94,-3.52 8.9,-5.26 2.93,1.74 5.85,3.43 8.82,5.17z"/>
   <path class="fil2" d="M131.67 98.56c-4.28,2.5 -8.56,5.05 -12.81,7.55 -4.24,-2.46 -8.44,-4.96 -12.68,-7.46 4.28,-2.5 8.56,-5 12.85,-7.55 4.24,2.5 8.44,4.96 12.63,7.46z"/>
   <path class="fil2" d="M116.03 107.76c-4.28,2.55 -8.56,5.05 -12.85,7.55 -4.2,-2.46 -8.44,-4.96 -12.63,-7.42 4.24,-2.55 8.52,-5.05 12.85,-7.59 4.2,2.5 8.39,5 12.63,7.46z"/>
   <path class="fil3" d="M119.04 106.02l0 -14.93c4.24,2.5 8.44,4.96 12.63,7.46 -4.24,2.46 -8.44,4.96 -12.63,7.46z"/>
   <path class="fil3" d="M103.39 115.23l0 -14.93c4.2,2.5 8.44,4.96 12.63,7.46 -4.24,2.5 -8.44,4.96 -12.63,7.46z"/>
   <path class="fil2" d="M97.46 140.67l0 -14.97c-4.24,2.5 -8.44,4.96 -12.68,7.46 4.24,2.5 8.48,5 12.68,7.5z"/>
   <path class="fil3" d="M97.46 125.7l0 14.97 5.13 3.01c5.93,3.52 11.87,7 17.81,10.51 -0.04,0 -0.04,0.04 -0.08,0.04 4.15,2.46 8.35,4.92 12.51,7.38 0,0 0,0 0.04,-0.04l0.21 -0.13 0 -14.71c-5.94,-3.52 -11.87,-7.04 -17.81,-10.52 -5.94,-3.52 -11.83,-7 -17.81,-10.51z"/>
   <path class="fil2" d="M133.07 146.73l0 14.71c4.15,-2.42 8.35,-4.88 12.51,-7.34 4.58,-2.71 9.16,-5.38 13.74,-8.1l1.23 -0.72 0 -14.76c-4.58,2.72 -9.16,5.39 -13.74,8.1 -4.58,2.71 -9.16,5.38 -13.74,8.1z"/>
   <path class="fil2" d="M137.14 134.86l0 -11.49c-2.76,-1.61 -5.51,-3.27 -8.27,-4.88 2.76,-1.65 5.51,-3.27 8.27,-4.88l0 -11.83c-4.75,2.8 -9.5,5.6 -14.24,8.4 -4.75,2.8 -9.5,5.6 -14.25,8.35 4.71,2.8 9.37,5.55 14.03,8.31 4.71,2.76 9.37,5.51 14.03,8.27l0.42 -0.25z"/>
   <path class="fil3" d="M128.88 118.49l8.23 4.88 0.04 0 0 11.49 -0.42 0.25c-2.63,-1.53 -5.26,-3.09 -7.85,-4.62l0 -12z"/>
   <path class="fil2" d="M137.14 123.37l0 11.49c3.14,-1.82 6.28,-3.69 9.46,-5.56l0 -10.9c-3.01,1.78 -5.98,3.52 -8.95,5.26l-0.51 -0.3z"/>
  </g>
 </g>
</svg>
