<svg width="28" height="28" viewBox="0 0 28 28" fill="none" xmlns="http://www.w3.org/2000/svg">
<g clip-path="url(#clip0_33_11)">
<path d="M6.26701 27.4338C5.96024 27.4338 5.6556 27.3381 5.39562 27.1501C4.91132 26.7991 4.68509 26.1958 4.8169 25.6137L6.61821 17.6789L0.509294 12.3215C0.0602469 11.9295 -0.111297 11.3087 0.0730647 10.7407C0.257426 10.1737 0.759026 9.7723 1.35291 9.7174L9.43576 8.98358L12.6314 1.50509C12.8671 0.955637 13.4037 0.6008 13.9999 0.6008C14.5962 0.6008 15.1328 0.955637 15.3684 1.50381L18.5641 8.98358L26.6457 9.7174C27.2408 9.77102 27.7424 10.1737 27.9268 10.7407C28.1112 11.3076 27.9407 11.9295 27.4916 12.3215L21.3827 17.6778L23.184 25.6124C23.316 26.1958 23.0896 26.7991 22.6055 27.1491C22.1225 27.499 21.4784 27.5259 20.9698 27.2202L13.9999 23.0551L7.03009 27.2225C6.79446 27.3625 6.53191 27.4338 6.26701 27.4338ZM13.9999 21.2608C14.2648 21.2608 14.5272 21.332 14.763 21.4719L21.3408 25.4061L19.6408 17.9169C19.5194 17.3839 19.7004 16.8274 20.1123 16.4668L25.8804 11.4081L18.249 10.715C17.6995 10.6648 17.227 10.3194 17.0123 9.8131L13.9999 2.75567L10.9839 9.81417C10.7716 10.3171 10.299 10.6625 9.75086 10.7127L2.11834 11.4057L7.88631 16.4644C8.29947 16.8261 8.4802 17.3815 8.35779 17.9158L6.65901 25.4048L13.2368 21.4719C13.4725 21.332 13.735 21.2608 13.9999 21.2608ZM9.37402 9.12821C9.37402 9.12821 9.37402 9.12949 9.37274 9.13056L9.37402 9.12821ZM18.6235 9.12479L18.6248 9.12714C18.6248 9.12586 18.6248 9.12586 18.6235 9.12479Z" fill="white"/>
</g>
<defs>
<clipPath id="clip0_33_11">
<rect width="28" height="28" fill="white"/>
</clipPath>
</defs>
</svg>
