<svg width="28" height="28" viewBox="0 0 28 28" fill="none" xmlns="http://www.w3.org/2000/svg">
<g clip-path="url(#clip0_33_6)">
<path d="M15.1666 21C15.1666 21.6443 14.6443 22.1666 14 22.1666C13.3557 22.1666 12.8334 21.6443 12.8334 21C12.8334 20.3557 13.3557 19.8334 14 19.8334C14.6443 19.8334 15.1666 20.3557 15.1666 21Z" fill="white"/>
<path d="M14 17.5C13.517 17.5 13.125 17.108 13.125 16.625V6.7084C13.125 6.2254 13.517 5.8334 14 5.8334C14.483 5.8334 14.875 6.2254 14.875 6.7084V16.625C14.875 17.108 14.483 17.5 14 17.5Z" fill="white"/>
<path d="M24.7916 28H3.2084C1.43854 28 0 26.5615 0 24.7916V3.2084C0 1.43854 1.43854 0 3.2084 0H24.7916C26.5615 0 28 1.43854 28 3.2084V24.7916C28 26.5615 26.5615 28 24.7916 28ZM3.2084 1.75C2.40454 1.75 1.75 2.40454 1.75 3.2084V24.7916C1.75 25.5955 2.40454 26.25 3.2084 26.25H24.7916C25.5955 26.25 26.25 25.5955 26.25 24.7916V3.2084C26.25 2.40454 25.5955 1.75 24.7916 1.75H3.2084Z" fill="white"/>
</g>
<defs>
<clipPath id="clip0_33_6">
<rect width="28" height="28" fill="white"/>
</clipPath>
</defs>
</svg>
