<svg width="258" height="172" viewBox="0 0 258 172" fill="none" xmlns="http://www.w3.org/2000/svg">
<path fill-rule="evenodd" clip-rule="evenodd" d="M115.795 1.49242L7.18307 65.6659L114.308 129.093L197.255 80.2169L230.359 99.9913L256.396 84.321L115.795 1.49242Z" stroke="white" stroke-width="0.793299" stroke-linecap="round" stroke-linejoin="round"/>
<path fill-rule="evenodd" clip-rule="evenodd" d="M230.359 141.033V99.9913L256.396 84.3211V125.735L230.359 141.033Z" stroke="white" stroke-width="0.793299" stroke-linecap="round" stroke-linejoin="round"/>
<path fill-rule="evenodd" clip-rule="evenodd" d="M114.308 170.134C114.308 170.134 197.255 122.751 197.255 121.631C197.255 120.139 197.255 80.2169 197.255 80.2169L114.308 129.093C114.308 129.093 100.545 152.599 114.308 170.134Z" stroke="white" stroke-width="0.793299" stroke-linecap="round" stroke-linejoin="round"/>
<path fill-rule="evenodd" clip-rule="evenodd" d="M230.359 99.9913V141.033L197.255 121.631V80.2169L230.359 99.9913Z" stroke="white" stroke-width="0.793299" stroke-linecap="round" stroke-linejoin="round"/>
<path fill-rule="evenodd" clip-rule="evenodd" d="M256.396 84.3211L230.359 99.9913V141.033L256.396 125.735V84.3211Z" stroke="white" stroke-width="0.793299" stroke-linecap="round" stroke-linejoin="round"/>
<path fill-rule="evenodd" clip-rule="evenodd" d="M7.18302 65.666C7.18302 65.666 -5.09167 86.1866 7.18302 106.707L114.308 170.135C114.308 170.135 100.545 155.584 114.308 129.093L7.18302 65.666Z" stroke="white" stroke-width="0.793299" stroke-linecap="round" stroke-linejoin="round"/>
<path d="M4.95129 72.3818L111.332 135.063" stroke="white" stroke-width="0.793299"/>
<path d="M3.46341 77.9783L109.844 141.033" stroke="white" stroke-width="0.793299"/>
<path d="M1.60364 83.5748L107.984 146.256" stroke="white" stroke-width="0.793299"/>
<path d="M1.97565 90.2907L108.356 153.718" stroke="white" stroke-width="0.793299"/>
<path d="M3.83542 98.1258L109.472 160.807" stroke="white" stroke-width="0.793299"/>
<path d="M197.255 88.4252L230.359 107.826" stroke="white" stroke-width="0.793299"/>
<path d="M197.255 94.7679L230.359 114.542" stroke="white" stroke-width="0.793299"/>
<path d="M197.255 101.484L230.359 121.258" stroke="white" stroke-width="0.793299"/>
<path d="M197.255 108.2L230.359 127.974" stroke="white" stroke-width="0.793299"/>
<path d="M197.255 114.915L230.359 134.317" stroke="white" stroke-width="0.793299"/>
<path fill-rule="evenodd" clip-rule="evenodd" d="M176.053 70.8894C173.449 72.7549 170.474 74.2473 167.87 76.1128C165.638 77.2321 163.778 78.3514 161.918 79.4707C156.711 82.4555 151.504 85.4404 146.296 88.4252C141.461 91.41 136.253 94.7679 131.046 97.7527C126.21 100.364 121.375 103.349 116.911 105.961C112.076 103.349 107.24 100.738 102.777 97.7527C96.0815 93.6486 89.3862 89.9176 82.6909 85.8135C75.9957 82.0824 69.6723 77.9783 62.9771 74.2473C67.4406 71.2625 72.2761 68.6508 77.1115 65.666C83.8068 69.7701 90.5021 73.5011 97.1974 77.6052C103.893 81.3362 110.216 85.4404 116.911 89.1714C122.119 86.1866 127.326 83.2017 132.534 80.2169C137.741 77.2321 142.577 74.2473 147.784 71.2625C144.808 69.397 141.833 67.5315 138.857 65.666C132.906 69.397 126.954 72.7549 121.003 76.1128C115.795 73.128 110.588 70.1432 105.381 67.1584C100.173 63.8004 94.9656 60.8156 89.7582 57.8308C94.9656 54.4729 100.173 51.4881 105.752 48.1302C110.96 45.1453 116.167 41.7874 121.747 38.8026C126.21 41.4143 130.674 44.3991 135.509 47.0109C139.973 49.6226 144.808 52.6074 149.272 55.2191C150.388 55.9653 151.876 56.7115 152.991 57.4577C160.803 61.9349 168.614 66.4122 176.053 70.8894ZM132.162 57.4577C128.814 59.3232 125.466 61.5618 122.119 63.4273C118.771 61.5618 115.423 59.6963 112.448 57.4577C115.795 55.5922 119.143 53.7267 122.491 51.4881C125.466 53.7267 128.814 55.5922 132.162 57.4577Z" stroke="white" stroke-width="0.793299" stroke-linecap="round" stroke-linejoin="round"/>
<path fill-rule="evenodd" clip-rule="evenodd" d="M116.539 33.9523C111.704 36.564 106.868 39.5488 102.405 42.5336C97.5694 39.5488 92.7339 36.9371 87.8984 33.9523C92.7339 30.9675 97.5694 28.3558 102.405 25.3709C107.24 28.3558 112.076 30.9675 116.539 33.9523Z" stroke="white" stroke-width="0.793299" stroke-linecap="round" stroke-linejoin="round"/>
<path fill-rule="evenodd" clip-rule="evenodd" d="M97.1974 45.8915C92.3619 48.8764 87.5265 51.4881 82.691 54.4729C78.2275 51.4881 73.392 48.8764 68.5565 45.8915C73.392 43.2798 78.2275 40.295 83.0629 37.6833C87.8984 40.295 92.3619 43.2798 97.1974 45.8915Z" stroke="white" stroke-width="0.793299" stroke-linecap="round" stroke-linejoin="round"/>
<path fill-rule="evenodd" clip-rule="evenodd" d="M102.405 42.1605V25.3709C107.24 28.3558 112.076 30.9675 116.539 33.9523C111.704 36.564 107.24 39.5488 102.405 42.1605Z" stroke="white" stroke-width="0.793299" stroke-linecap="round" stroke-linejoin="round"/>
<path fill-rule="evenodd" clip-rule="evenodd" d="M83.0629 54.4729V37.6833C87.8984 40.295 92.3619 43.2798 97.1974 45.8915C92.3619 48.8764 87.8984 51.4881 83.0629 54.4729Z" stroke="white" stroke-width="0.793299" stroke-linecap="round" stroke-linejoin="round"/>
<path fill-rule="evenodd" clip-rule="evenodd" d="M77.1115 82.4555V65.666C72.2761 68.6508 67.4406 71.2625 62.9771 74.2473C67.4406 76.859 72.2761 79.8438 77.1115 82.4555Z" stroke="white" stroke-width="0.793299" stroke-linecap="round" stroke-linejoin="round"/>
<path fill-rule="evenodd" clip-rule="evenodd" d="M77.1116 65.666V82.4555L82.691 85.8135C89.3863 89.9176 96.0816 93.6486 102.777 97.7527C107.24 100.738 112.076 103.349 116.911 105.961V89.1714C110.216 85.4404 103.893 81.3362 97.1975 77.6052C90.5022 73.5011 83.8069 69.7701 77.1116 65.666Z" stroke="white" stroke-width="0.793299" stroke-linecap="round" stroke-linejoin="round"/>
<path fill-rule="evenodd" clip-rule="evenodd" d="M116.911 89.1714V105.961C121.747 103.349 126.21 100.364 131.046 97.7527C136.253 94.7679 141.461 91.41 146.296 88.4252L147.784 87.679V71.2625C142.577 74.2473 137.741 77.2321 132.534 80.2169C127.326 83.2017 122.119 86.1866 116.911 89.1714Z" stroke="white" stroke-width="0.793299" stroke-linecap="round" stroke-linejoin="round"/>
<path fill-rule="evenodd" clip-rule="evenodd" d="M121.747 76.1128V63.0542C118.399 61.1887 115.423 59.3232 112.448 57.4577C115.423 55.5922 118.399 53.7267 121.747 52.2343V38.8026C116.167 41.7874 110.96 45.1453 105.752 48.1302C100.173 51.4881 94.9656 54.4729 89.7582 57.8308C94.9656 60.8156 100.173 63.8004 105.381 67.1584C110.588 70.1432 115.795 73.128 121.003 76.1128H121.747Z" stroke="white" stroke-width="0.793299" stroke-linecap="round" stroke-linejoin="round"/>
<path fill-rule="evenodd" clip-rule="evenodd" d="M112.448 57.4577L121.375 63.0542H121.747V76.1128H121.003C118.027 74.6204 115.423 72.7549 112.448 70.8894V57.4577Z" stroke="white" stroke-width="0.793299" stroke-linecap="round" stroke-linejoin="round"/>
<path fill-rule="evenodd" clip-rule="evenodd" d="M121.747 63.0542V76.1128C125.094 73.8742 128.814 72.0087 132.162 69.7701V57.4577C128.814 59.3232 125.466 61.5618 122.119 63.4273L121.747 63.0542Z" stroke="white" stroke-width="0.793299" stroke-linecap="round" stroke-linejoin="round"/>
</svg>
