<svg width="242" height="78" viewBox="0 0 242 78" fill="none" xmlns="http://www.w3.org/2000/svg">
<g clip-path="url(#clip0_81_249)">
<path d="M100.865 38.5101C100.865 36.1784 101.188 33.9707 101.833 31.8995C102.465 29.8283 103.383 28.0175 104.561 26.4672C105.739 24.9292 107.166 23.7014 108.84 22.8084C110.514 21.9154 112.374 21.4813 114.433 21.4813C115.785 21.4813 117.013 21.6798 118.104 22.0766C119.208 22.4859 120.126 23.1061 120.895 23.9494C121.664 24.7804 122.259 25.847 122.693 27.1245C123.115 28.4144 123.325 29.9275 123.325 31.6887C123.325 34.0452 123.003 36.2776 122.37 38.3613C121.726 40.4449 120.82 42.2681 119.654 43.8432C118.489 45.4184 117.087 46.6462 115.475 47.5516C113.85 48.457 112.064 48.9159 110.105 48.9159C107.141 48.9159 104.859 48.0353 103.284 46.2865C101.696 44.5502 100.89 41.958 100.865 38.5101ZM106.025 38.3613C106.025 40.1721 106.372 41.6108 107.066 42.6898C107.761 43.7688 108.89 44.3145 110.477 44.3145C111.63 44.3145 112.685 43.9673 113.627 43.2727C114.57 42.5906 115.376 41.6604 116.058 40.4945C116.728 39.3163 117.248 37.9768 117.62 36.4761C117.98 34.963 118.166 33.4002 118.166 31.7631C118.166 29.7787 117.782 28.34 117 27.4346C116.219 26.5292 115.152 26.0703 113.788 26.0703C112.66 26.0703 111.63 26.4052 110.688 27.0501C109.745 27.7074 108.927 28.588 108.232 29.7043C107.55 30.8329 107.004 32.1352 106.62 33.6235C106.223 35.1242 106.025 36.6993 106.025 38.3613ZM122.308 56.0226C121.105 56.3575 119.915 56.5187 118.737 56.5187C117.521 56.5187 116.368 56.3947 115.264 56.1218C114.16 55.8489 113.094 55.5637 112.077 55.266C111.06 54.956 110.092 54.6707 109.162 54.3978C108.232 54.1374 107.314 54.001 106.409 54.001C105.826 54.001 105.268 54.0754 104.71 54.2242L105.653 49.7841C106.36 49.6228 107.066 49.5484 107.761 49.5484C108.765 49.5484 109.745 49.6725 110.688 49.9329C111.63 50.181 112.585 50.4538 113.553 50.7391C114.52 51.0243 115.512 51.2972 116.542 51.5452C117.571 51.8057 118.675 51.9297 119.865 51.9297C120.386 51.9297 120.932 51.8925 121.502 51.8305C122.06 51.7685 122.656 51.6569 123.251 51.508L122.308 56.0226Z" fill="white"/>
<path d="M127.964 29.543H132.639L128.646 48.3826H123.97L127.964 29.543ZM128.683 24.1851C128.683 23.3541 128.943 22.7216 129.489 22.2627C130.035 21.8162 130.717 21.5929 131.548 21.5929C132.342 21.5929 133.036 21.8162 133.594 22.2627C134.165 22.7216 134.45 23.3541 134.45 24.1851C134.45 24.9913 134.165 25.6238 133.594 26.0951C133.036 26.554 132.342 26.7896 131.548 26.7896C130.717 26.7896 130.035 26.554 129.489 26.0951C128.943 25.6238 128.683 24.9913 128.683 24.1851Z" fill="white"/>
<path d="M140.738 29.543L140.775 32.9289H140.924C141.482 31.8995 142.152 31.0313 142.945 30.312C143.739 29.5926 144.731 29.2329 145.934 29.2329C146.467 29.2329 147.1 29.3446 147.819 29.543L146.653 33.6483C146.405 33.5739 146.17 33.5118 145.934 33.4622C145.711 33.4126 145.475 33.3878 145.227 33.3878C144.198 33.3878 143.243 33.7227 142.375 34.38C141.507 35.0374 140.849 35.8063 140.403 36.6869L137.947 48.3826H133.272L137.278 29.543H140.738Z" fill="white"/>
<path d="M162.255 40.8418C162.057 41.7968 161.908 42.7642 161.821 43.744C161.734 44.7238 161.697 45.654 161.697 46.5346C161.697 46.8943 161.697 47.2167 161.709 47.5392C161.722 47.8493 161.747 48.1469 161.771 48.4198H158.336L157.815 45.1827H157.654C157.381 45.6292 157.021 46.0757 156.587 46.5222C156.141 46.9563 155.657 47.3656 155.136 47.7252C154.603 48.0849 154.045 48.3826 153.462 48.5934C152.867 48.8043 152.259 48.9159 151.627 48.9159C149.977 48.9159 148.749 48.3702 147.956 47.2912C147.162 46.2121 146.765 44.761 146.765 42.9626C146.765 41.1271 147.001 39.3659 147.46 37.6791C147.931 35.9924 148.65 34.5165 149.63 33.239C150.61 31.9491 151.85 30.9321 153.35 30.1631C154.839 29.3942 156.612 29.0097 158.671 29.0097C159.551 29.0097 160.519 29.0965 161.561 29.2578C162.602 29.419 163.619 29.6422 164.599 29.9151L162.255 40.8418ZM153.4 45.0711C153.859 45.0711 154.281 44.9719 154.677 44.7858C155.087 44.5998 155.459 44.3393 155.794 44.0417C156.129 43.744 156.439 43.4091 156.699 43.0619C156.959 42.7022 157.195 42.3673 157.394 42.0697L159.279 33.239C159.006 33.1026 158.683 33.0157 158.324 32.9537C157.952 32.8917 157.592 32.8545 157.245 32.8545C156.339 32.8545 155.533 33.1274 154.839 33.6731C154.132 34.2188 153.537 34.9257 153.04 35.7939C152.557 36.6745 152.185 37.6543 151.937 38.7582C151.676 39.8496 151.552 40.9534 151.552 42.0697C151.552 42.8758 151.689 43.5828 151.949 44.1781C152.209 44.7734 152.693 45.0711 153.4 45.0711Z" fill="white"/>
<path d="M181.218 40.8418C181.007 41.7968 180.87 42.7642 180.784 43.744C180.697 44.7238 180.647 45.654 180.647 46.5346C180.647 46.8943 180.66 47.2167 180.672 47.5392C180.684 47.8493 180.697 48.1469 180.722 48.4198H177.299L176.765 45.1827H176.617C176.344 45.6292 175.984 46.0757 175.538 46.5222C175.103 46.9563 174.62 47.3656 174.087 47.7252C173.566 48.0849 173.008 48.3826 172.412 48.5934C171.817 48.8043 171.209 48.9159 170.589 48.9159C168.927 48.9159 167.7 48.3702 166.906 47.2912C166.124 46.2121 165.728 44.761 165.728 42.9626C165.728 41.1271 165.951 39.3659 166.422 37.6791C166.881 35.9924 167.613 34.5165 168.592 33.239C169.572 31.9491 170.8 30.9321 172.301 30.1631C173.789 29.3942 175.575 29.0097 177.633 29.0097C178.514 29.0097 179.469 29.0965 180.511 29.2578C181.552 29.419 182.569 29.6422 183.549 29.9151L181.218 40.8418ZM172.363 45.0711C172.809 45.0711 173.231 44.9719 173.64 44.7858C174.037 44.5998 174.409 44.3393 174.744 44.0417C175.091 43.744 175.389 43.4091 175.649 43.0619C175.922 42.7022 176.145 42.3673 176.356 42.0697L178.241 33.239C177.956 33.1026 177.633 33.0157 177.274 32.9537C176.914 32.8917 176.554 32.8545 176.195 32.8545C175.302 32.8545 174.496 33.1274 173.789 33.6731C173.082 34.2188 172.487 34.9257 172.003 35.7939C171.507 36.6745 171.135 37.6543 170.887 38.7582C170.639 39.8496 170.515 40.9534 170.515 42.0697C170.515 42.8758 170.639 43.5828 170.912 44.1781C171.172 44.7734 171.656 45.0711 172.363 45.0711Z" fill="white"/>
<path d="M185.844 29.543H188.299L189.056 25.9959L194.029 24.6068L192.975 29.543H197.377L196.509 33.3878H192.144L190.296 41.958C190.147 42.6402 190.073 43.1983 190.073 43.62C190.073 44.1781 190.197 44.5626 190.445 44.761C190.693 44.9719 191.077 45.0711 191.573 45.0711C192.057 45.0711 192.491 45.0215 192.875 44.9099C193.26 44.7982 193.669 44.6246 194.103 44.3889V47.8617C193.83 48.0105 193.496 48.1469 193.099 48.2958C192.702 48.4322 192.28 48.5438 191.834 48.6306C191.375 48.7175 190.916 48.7919 190.432 48.8415C189.949 48.8911 189.515 48.9159 189.105 48.9159C187.815 48.9159 186.823 48.6182 186.141 48.0229C185.434 47.4276 185.099 46.5346 185.099 45.3191C185.099 45.0711 185.112 44.7982 185.149 44.5254C185.186 44.2525 185.236 43.9673 185.285 43.6572L187.468 33.3878H184.938L185.844 29.543Z" fill="white"/>
<path d="M200.503 29.543H205.178L201.185 48.3826H196.509L200.503 29.543ZM201.222 24.1851C201.222 23.3541 201.495 22.7216 202.028 22.2627C202.574 21.8162 203.256 21.5929 204.087 21.5929C204.893 21.5929 205.575 21.8162 206.146 22.2627C206.704 22.7216 206.989 23.3541 206.989 24.1851C206.989 24.9913 206.704 25.6238 206.146 26.0951C205.575 26.554 204.893 26.7896 204.087 26.7896C203.256 26.7896 202.574 26.554 202.028 26.0951C201.495 25.6238 201.222 24.9913 201.222 24.1851Z" fill="white"/>
<path d="M213.587 40.5813H212.111L210.499 48.3826H205.823L211.404 22.0022H216.067L212.756 37.5675L214.108 37.0838L219.428 29.543H224.587L218.969 37.121L216.687 38.5473L218.337 39.9736L221.201 48.3826H216.303L213.587 40.5813Z" fill="white"/>
<path d="M231.706 29.543L229.263 41.1891C229.114 41.9332 229.04 42.5658 229.04 43.0743C229.04 43.5704 229.139 43.9672 229.337 44.2401C229.548 44.513 229.895 44.6494 230.404 44.6494C230.825 44.6494 231.259 44.5502 231.706 44.3269C232.152 44.1161 232.574 43.8432 232.983 43.5084C233.38 43.1611 233.752 42.789 234.1 42.3673C234.434 41.958 234.72 41.5487 234.955 41.1519L237.361 29.543H242L239.618 40.8418C239.494 41.3503 239.395 41.9332 239.308 42.6154C239.222 43.2975 239.135 43.9921 239.06 44.7114C238.986 45.4308 238.936 46.1129 238.911 46.7578C238.887 47.4152 238.887 47.9609 238.911 48.3826H235.178L234.992 44.9967H234.844C234.484 45.468 234.075 45.9393 233.616 46.4106C233.145 46.8695 232.636 47.2911 232.066 47.6632C231.508 48.0477 230.887 48.3454 230.218 48.5686C229.56 48.8043 228.841 48.9159 228.097 48.9159C226.906 48.9159 225.951 48.6182 225.232 48.0229C224.5 47.44 224.141 46.3485 224.141 44.761C224.141 43.8308 224.265 42.8138 224.513 41.71L227.117 29.543H231.706Z" fill="white"/>
<path d="M65.8419 0H12.1539C5.44149 0 0 5.44178 0 12.1546V65.8454C0 72.5582 5.44149 78 12.1539 78H65.8419C72.5543 78 77.9958 72.5582 77.9958 65.8454V12.1546C77.9958 5.44178 72.5543 0 65.8419 0Z" fill="#F5F2EB"/>
<path fill-rule="evenodd" clip-rule="evenodd" d="M35.4452 15.9622L7.11917 32.6189L35.0111 49.1267L56.6029 36.4389L65.2595 41.5611L72.0433 37.5055L35.4452 15.9622Z" fill="#78AAF7"/>
<path fill-rule="evenodd" clip-rule="evenodd" d="M35.0111 59.8054C35.0111 59.8054 56.6029 47.4648 56.6029 47.1175C56.6029 46.7702 56.6029 36.4389 56.6029 36.4389L35.0111 49.1267C35.0111 49.1267 31.3898 55.1668 35.0111 59.8054Z" fill="#B6D1FB"/>
<path fill-rule="evenodd" clip-rule="evenodd" d="M65.2595 41.5611V52.2398L56.6029 47.1175V36.4389L65.2595 41.5611Z" fill="#2F7CF2"/>
<path fill-rule="evenodd" clip-rule="evenodd" d="M72.0433 37.5055L65.2595 41.5611V52.2398L72.0433 48.1841V37.5055Z" fill="#B6D1FB"/>
<path fill-rule="evenodd" clip-rule="evenodd" d="M7.11918 32.6189C7.11918 32.6189 3.83267 37.9768 7.11918 43.2975L35.0111 59.8054C35.0111 59.8054 31.4518 55.9854 35.0111 49.1267L7.11918 32.6189Z" fill="#2F7CF2"/>
<path fill-rule="evenodd" clip-rule="evenodd" d="M51.1461 33.9955C50.4143 34.4296 49.6826 34.8637 48.9509 35.2978C48.4424 35.5955 47.9464 35.8931 47.4379 36.1908C46.0985 36.9722 44.7591 37.7659 43.4196 38.5597C42.0802 39.3535 40.7408 40.1348 39.4014 40.9286C38.1612 41.6604 36.921 42.3921 35.6808 43.1115C35.6684 43.1239 35.6684 43.1239 35.6684 43.1239C34.453 42.4045 33.2253 41.6852 32.0099 40.9658C32.0223 40.9658 32.0223 40.9534 32.0347 40.9534C30.2984 39.924 28.5621 38.907 26.8259 37.8776C25.0896 36.8481 23.3533 35.8187 21.617 34.8017C22.8572 34.07 24.085 33.3506 25.3252 32.6188C27.0739 33.6483 28.7978 34.6653 30.534 35.6947C32.2703 36.7117 34.0066 37.7411 35.7428 38.7705C37.0823 37.9768 38.4217 37.1954 39.7611 36.4016C41.1005 35.6079 42.4399 34.8265 43.7793 34.0327C43.0104 33.5739 42.2167 33.115 41.4353 32.6437C39.8975 33.5614 38.3473 34.4668 36.8094 35.3722C35.4452 34.5661 34.081 33.7599 32.7044 32.9537C31.3402 32.1476 29.9759 31.3414 28.5993 30.5228C29.9883 29.7166 31.3774 28.8981 32.7664 28.0795C34.1554 27.2609 35.5444 26.4424 36.9334 25.6238C38.1364 26.3431 39.3394 27.0501 40.5548 27.757C41.7578 28.464 42.9484 29.1709 44.1514 29.8779C44.4862 30.0763 44.8211 30.2748 45.1435 30.4608C47.1526 31.639 49.1493 32.8297 51.1461 33.9955ZM39.6991 30.4856C38.8185 31.0065 37.9504 31.515 37.0823 32.0235C36.2265 31.515 35.3708 31.0189 34.5151 30.5104C35.3708 29.9895 36.2513 29.481 37.1195 28.9725C37.9752 29.481 38.8309 29.9771 39.6991 30.4856Z" fill="#2F7CF2"/>
<path fill-rule="evenodd" clip-rule="evenodd" d="M35.3336 24.6812C34.081 25.4129 32.8284 26.1571 31.5882 26.8888C30.348 26.1695 29.1202 25.4377 27.88 24.706C29.1326 23.9742 30.3852 23.2425 31.6378 22.4983C32.878 23.2301 34.1058 23.9494 35.3336 24.6812Z" fill="#B6D1FB"/>
<path fill-rule="evenodd" clip-rule="evenodd" d="M30.7573 27.3725C29.5047 28.1167 28.2521 28.8485 26.9995 29.5802C25.7717 28.8609 24.5315 28.1291 23.3037 27.4098C24.5439 26.6656 25.7965 25.9338 27.0615 25.1897C28.2893 25.9214 29.5171 26.6532 30.7573 27.3725Z" fill="#B6D1FB"/>
<path fill-rule="evenodd" clip-rule="evenodd" d="M31.6378 26.864V22.4983C32.878 23.2301 34.1058 23.9494 35.3336 24.6812C34.0934 25.4005 32.8656 26.1323 31.6378 26.864Z" fill="#2F7CF2"/>
<path fill-rule="evenodd" clip-rule="evenodd" d="M27.0615 29.5554V25.1897C28.2893 25.9215 29.5295 26.6408 30.7573 27.3726C29.5171 28.1043 28.2893 28.8237 27.0615 29.5554Z" fill="#2F7CF2"/>
<path fill-rule="evenodd" clip-rule="evenodd" d="M25.3252 36.997V32.6189C24.085 33.3506 22.8572 34.07 21.617 34.8017C22.8572 35.5335 24.0974 36.2652 25.3252 36.997Z" fill="#B6D1FB"/>
<path fill-rule="evenodd" clip-rule="evenodd" d="M25.3252 32.6189V36.997L26.8259 37.8776C28.5621 38.907 30.2984 39.924 32.0347 40.9534C32.0223 40.9534 32.0223 40.9658 32.0099 40.9658C33.2253 41.6852 34.4531 42.4045 35.6684 43.1239C35.6684 43.1239 35.6684 43.1239 35.6808 43.1115L35.7429 43.0743V38.7706C34.0066 37.7411 32.2703 36.7117 30.534 35.6947C28.7978 34.6653 27.0739 33.6483 25.3252 32.6189Z" fill="#2F7CF2"/>
<path fill-rule="evenodd" clip-rule="evenodd" d="M35.7429 38.7705V43.0742C36.9582 42.3673 38.186 41.6479 39.4014 40.9286C40.7408 40.1348 42.0803 39.3535 43.4197 38.5597L43.7793 38.3489V34.0327C42.4399 34.8265 41.1005 35.6079 39.7611 36.4016C38.4217 37.1954 37.0823 37.9768 35.7429 38.7705Z" fill="#B6D1FB"/>
<path fill-rule="evenodd" clip-rule="evenodd" d="M36.9334 35.2978V31.9367C36.1273 31.4654 35.3212 30.9817 34.5151 30.5104C35.3212 30.0267 36.1273 29.5554 36.9334 29.0841V25.6238C35.5444 26.4424 34.1554 27.2609 32.7664 28.0795C31.3774 28.8981 29.9884 29.7167 28.5993 30.5228C29.9759 31.3414 31.3402 32.1476 32.7044 32.9537C34.081 33.7599 35.4452 34.5661 36.8094 35.3722L36.9334 35.2978Z" fill="#B6D1FB"/>
<path fill-rule="evenodd" clip-rule="evenodd" d="M34.5151 30.5104L36.9211 31.9367H36.9335V35.2978L36.8094 35.3722C36.0405 34.9257 35.2716 34.4668 34.5151 34.0203V30.5104Z" fill="#2F7CF2"/>
<path fill-rule="evenodd" clip-rule="evenodd" d="M36.9334 31.9367V35.2978C37.8512 34.7645 38.7689 34.2188 39.6991 33.6731V30.4856C38.8185 31.0065 37.9504 31.515 37.0823 32.0235L36.9334 31.9367Z" fill="#B6D1FB"/>
</g>
<defs>
<clipPath id="clip0_81_249">
<rect width="242" height="78" fill="white"/>
</clipPath>
</defs>
</svg>
